G04 #@! TF.GenerationSoftware,KiCad,Pcbnew,9.0.1*
G04 #@! TF.CreationDate,2025-06-27T23:51:54+02:00*
G04 #@! TF.ProjectId,NPI,4e50492e-6b69-4636-9164-5f7063625858,rev?*
G04 #@! TF.SameCoordinates,Original*
G04 #@! TF.FileFunction,Copper,L6,Bot*
G04 #@! TF.FilePolarity,Positive*
%FSLAX46Y46*%
G04 Gerber Fmt 4.6, Leading zero omitted, Abs format (unit mm)*
G04 Created by KiCad (PCBNEW 9.0.1) date 2025-06-27 23:51:54*
%MOMM*%
%LPD*%
G01*
G04 APERTURE LIST*
G04 #@! TA.AperFunction,SMDPad,CuDef*
%ADD10R,5.080000X2.000000*%
G04 #@! TD*
G04 #@! TA.AperFunction,ViaPad*
%ADD11C,0.600000*%
G04 #@! TD*
G04 #@! TA.AperFunction,ViaPad*
%ADD12C,0.800000*%
G04 #@! TD*
G04 #@! TA.AperFunction,Conductor*
%ADD13C,0.203200*%
G04 #@! TD*
G04 APERTURE END LIST*
D10*
X83337500Y-113000000D03*
X83337500Y-105000000D03*
X83337500Y-121000000D03*
X83337500Y-129000000D03*
D11*
X86000000Y-131000000D03*
X86000000Y-99000000D03*
X86000000Y-100000000D03*
X86000000Y-101000000D03*
X86000000Y-102000000D03*
X86000000Y-103000000D03*
X86000000Y-115000000D03*
X86000000Y-116000000D03*
X86000000Y-117000000D03*
X86000000Y-118000000D03*
X86000000Y-119000000D03*
X86000000Y-132000000D03*
X86000000Y-133000000D03*
X86000000Y-134000000D03*
X86000000Y-135000000D03*
X80000000Y-141000000D03*
X79000000Y-141000000D03*
X75000000Y-141000000D03*
X76000000Y-141000000D03*
X78000000Y-141000000D03*
X77000000Y-141000000D03*
X73000000Y-141000000D03*
X74000000Y-141000000D03*
X72000000Y-141000000D03*
X68000000Y-141000000D03*
X69000000Y-141000000D03*
X71000000Y-141000000D03*
X70000000Y-141000000D03*
X66000000Y-141000000D03*
X67000000Y-141000000D03*
X65000000Y-141000000D03*
X61000000Y-141000000D03*
X62000000Y-141000000D03*
X64000000Y-141000000D03*
X63000000Y-141000000D03*
X59000000Y-141000000D03*
X60000000Y-141000000D03*
X58000000Y-141000000D03*
X54000000Y-141000000D03*
X55000000Y-141000000D03*
X57000000Y-141000000D03*
X56000000Y-141000000D03*
X52000000Y-141000000D03*
X53000000Y-141000000D03*
X51000000Y-141000000D03*
X50000000Y-141000000D03*
X49000000Y-141000000D03*
X48000000Y-141000000D03*
X47000000Y-141000000D03*
X46000000Y-141000000D03*
X45000000Y-141000000D03*
X44000000Y-141000000D03*
X38000000Y-135000000D03*
X38000000Y-134000000D03*
X38000000Y-133000000D03*
X38000000Y-123000000D03*
X38000000Y-126000000D03*
X38000000Y-124000000D03*
X38000000Y-128000000D03*
X38000000Y-129000000D03*
X38000000Y-127000000D03*
X38000000Y-101000000D03*
X38000000Y-125000000D03*
X38000000Y-132000000D03*
X38000000Y-104000000D03*
X38000000Y-99000000D03*
X38000000Y-100000000D03*
X38000000Y-102000000D03*
X38000000Y-131000000D03*
X38000000Y-122000000D03*
X38000000Y-130000000D03*
X38000000Y-103000000D03*
X38000000Y-112000000D03*
X38000000Y-115000000D03*
X38000000Y-111000000D03*
X38000000Y-113000000D03*
X38000000Y-114000000D03*
X38000000Y-121000000D03*
X38000000Y-106000000D03*
X38000000Y-120000000D03*
X38000000Y-118000000D03*
X38000000Y-110000000D03*
X38000000Y-108000000D03*
X38000000Y-109000000D03*
X38000000Y-107000000D03*
X38000000Y-105000000D03*
X38000000Y-116000000D03*
X38000000Y-117000000D03*
X38000000Y-119000000D03*
X44000000Y-93000000D03*
X45000000Y-93000000D03*
X46000000Y-93000000D03*
X56000000Y-93000000D03*
X53000000Y-93000000D03*
X57000000Y-93000000D03*
X55000000Y-93000000D03*
X54000000Y-93000000D03*
X51000000Y-93000000D03*
X47000000Y-93000000D03*
X49000000Y-93000000D03*
X48000000Y-93000000D03*
X50000000Y-93000000D03*
X52000000Y-93000000D03*
X67000000Y-93000000D03*
X64000000Y-93000000D03*
X68000000Y-93000000D03*
X66000000Y-93000000D03*
X65000000Y-93000000D03*
X62000000Y-93000000D03*
X58000000Y-93000000D03*
X60000000Y-93000000D03*
X59000000Y-93000000D03*
X61000000Y-93000000D03*
X63000000Y-93000000D03*
X69000000Y-93000000D03*
X71000000Y-93000000D03*
X70000000Y-93000000D03*
X72000000Y-93000000D03*
X74000000Y-93000000D03*
X73000000Y-93000000D03*
X75000000Y-93000000D03*
X77000000Y-93000000D03*
X76000000Y-93000000D03*
X78000000Y-93000000D03*
X79000000Y-93000000D03*
X80000000Y-93000000D03*
D12*
X51850000Y-108900000D03*
X62400000Y-111875000D03*
X44500000Y-119525000D03*
D11*
X79500000Y-127000000D03*
X79500000Y-128000000D03*
X78500000Y-128000000D03*
X77500000Y-128000000D03*
X76500000Y-128000000D03*
X75500000Y-128000000D03*
X74500000Y-128000000D03*
X73500000Y-128000000D03*
X72500000Y-128000000D03*
X71500000Y-128000000D03*
X70500000Y-128000000D03*
X70500000Y-127000000D03*
X70500000Y-126000000D03*
X70500000Y-125000000D03*
X70500000Y-124000000D03*
X70500000Y-123000000D03*
X69500000Y-123000000D03*
X68500000Y-123000000D03*
X63500000Y-123000000D03*
X67500000Y-123000000D03*
X66500000Y-123000000D03*
X65500000Y-123000000D03*
X64500000Y-123000000D03*
X63500000Y-122000000D03*
X63500000Y-121000000D03*
X63500000Y-120000000D03*
X63500000Y-119000000D03*
X79500000Y-123000000D03*
X79500000Y-122000000D03*
X79500000Y-121000000D03*
X79500000Y-120000000D03*
X79500000Y-119000000D03*
X79500000Y-118000000D03*
X79500000Y-117000000D03*
X79500000Y-116000000D03*
X79500000Y-115000000D03*
X79500000Y-114000000D03*
X79500000Y-113000000D03*
X79500000Y-112000000D03*
X79500000Y-111000000D03*
X79500000Y-106500000D03*
X79500000Y-105500000D03*
X78500000Y-105500000D03*
X77500000Y-105500000D03*
X76500000Y-105500000D03*
X75500000Y-105500000D03*
X74500000Y-105500000D03*
X73500000Y-105500000D03*
X72500000Y-105500000D03*
X71500000Y-105500000D03*
X70500000Y-105500000D03*
X69500000Y-105500000D03*
X68500000Y-105500000D03*
X67500000Y-105500000D03*
X66500000Y-105500000D03*
X65500000Y-105500000D03*
X64500000Y-105500000D03*
X63500000Y-106000000D03*
X63500000Y-107000000D03*
X63500000Y-108000000D03*
X63500000Y-109000000D03*
X63500000Y-110000000D03*
X63500000Y-111000000D03*
X63500000Y-112000000D03*
X63500000Y-113000000D03*
X59000000Y-113150000D03*
X52800000Y-113160000D03*
X58900000Y-115700000D03*
X53370000Y-116970000D03*
X54500000Y-132250000D03*
X53500000Y-132250000D03*
X52500000Y-132250000D03*
X51500000Y-132250000D03*
X50500000Y-132250000D03*
X50500000Y-131250000D03*
X51500000Y-131250000D03*
X52500000Y-131250000D03*
X53500000Y-131250000D03*
X54500000Y-131250000D03*
X54500000Y-130250000D03*
X53500000Y-130250000D03*
X52500000Y-130250000D03*
X51500000Y-130250000D03*
X50500000Y-130250000D03*
D13*
X53170000Y-113150000D02*
X59000000Y-113150000D01*
X53160000Y-113160000D02*
X53170000Y-113150000D01*
X52800000Y-113160000D02*
X53160000Y-113160000D01*
X58300000Y-115700000D02*
X58900000Y-115700000D01*
X57800000Y-116200000D02*
X58300000Y-115700000D01*
X57030000Y-116970000D02*
X57800000Y-116200000D01*
X53370000Y-116970000D02*
X57030000Y-116970000D01*
G04 #@! TA.AperFunction,Conductor*
G36*
X86442539Y-92520185D02*
G01*
X86488294Y-92572989D01*
X86499500Y-92624500D01*
X86499500Y-103623996D01*
X86479815Y-103691035D01*
X86427011Y-103736790D01*
X86357853Y-103746734D01*
X86294297Y-103717709D01*
X86276234Y-103698307D01*
X86234690Y-103642812D01*
X86234687Y-103642809D01*
X86119593Y-103556649D01*
X86119586Y-103556645D01*
X85984879Y-103506403D01*
X85984872Y-103506401D01*
X85925344Y-103500000D01*
X83587500Y-103500000D01*
X83587500Y-106500000D01*
X85925328Y-106500000D01*
X85925344Y-106499999D01*
X85984872Y-106493598D01*
X85984879Y-106493596D01*
X86119586Y-106443354D01*
X86119593Y-106443350D01*
X86234686Y-106357191D01*
X86276233Y-106301692D01*
X86332167Y-106259821D01*
X86401858Y-106254837D01*
X86463181Y-106288322D01*
X86496666Y-106349645D01*
X86499500Y-106376003D01*
X86499500Y-111623996D01*
X86479815Y-111691035D01*
X86427011Y-111736790D01*
X86357853Y-111746734D01*
X86294297Y-111717709D01*
X86276234Y-111698307D01*
X86234690Y-111642812D01*
X86234687Y-111642809D01*
X86119593Y-111556649D01*
X86119586Y-111556645D01*
X85984879Y-111506403D01*
X85984872Y-111506401D01*
X85925344Y-111500000D01*
X83587500Y-111500000D01*
X83587500Y-114500000D01*
X85925328Y-114500000D01*
X85925344Y-114499999D01*
X85984872Y-114493598D01*
X85984879Y-114493596D01*
X86119586Y-114443354D01*
X86119593Y-114443350D01*
X86234686Y-114357191D01*
X86276233Y-114301692D01*
X86332167Y-114259821D01*
X86401858Y-114254837D01*
X86463181Y-114288322D01*
X86496666Y-114349645D01*
X86499500Y-114376003D01*
X86499500Y-119623996D01*
X86479815Y-119691035D01*
X86427011Y-119736790D01*
X86357853Y-119746734D01*
X86294297Y-119717709D01*
X86276234Y-119698307D01*
X86234690Y-119642812D01*
X86234687Y-119642809D01*
X86119593Y-119556649D01*
X86119586Y-119556645D01*
X85984879Y-119506403D01*
X85984872Y-119506401D01*
X85925344Y-119500000D01*
X83587500Y-119500000D01*
X83587500Y-122500000D01*
X85925328Y-122500000D01*
X85925344Y-122499999D01*
X85984872Y-122493598D01*
X85984879Y-122493596D01*
X86119586Y-122443354D01*
X86119593Y-122443350D01*
X86234686Y-122357191D01*
X86276233Y-122301692D01*
X86332167Y-122259821D01*
X86401858Y-122254837D01*
X86463181Y-122288322D01*
X86496666Y-122349645D01*
X86499500Y-122376003D01*
X86499500Y-127623996D01*
X86479815Y-127691035D01*
X86427011Y-127736790D01*
X86357853Y-127746734D01*
X86294297Y-127717709D01*
X86276234Y-127698307D01*
X86234690Y-127642812D01*
X86234687Y-127642809D01*
X86119593Y-127556649D01*
X86119586Y-127556645D01*
X85984879Y-127506403D01*
X85984872Y-127506401D01*
X85925344Y-127500000D01*
X83587500Y-127500000D01*
X83587500Y-130500000D01*
X85925328Y-130500000D01*
X85925344Y-130499999D01*
X85984872Y-130493598D01*
X85984879Y-130493596D01*
X86119586Y-130443354D01*
X86119593Y-130443350D01*
X86234686Y-130357191D01*
X86276233Y-130301692D01*
X86332167Y-130259821D01*
X86401858Y-130254837D01*
X86463181Y-130288322D01*
X86496666Y-130349645D01*
X86499500Y-130376003D01*
X86499500Y-141375500D01*
X86479815Y-141442539D01*
X86427011Y-141488294D01*
X86375500Y-141499500D01*
X37624500Y-141499500D01*
X37557461Y-141479815D01*
X37511706Y-141427011D01*
X37500500Y-141375500D01*
X37500500Y-137878711D01*
X39149500Y-137878711D01*
X39149500Y-138121288D01*
X39181161Y-138361785D01*
X39243947Y-138596104D01*
X39336773Y-138820205D01*
X39336776Y-138820212D01*
X39458064Y-139030289D01*
X39458066Y-139030292D01*
X39458067Y-139030293D01*
X39605733Y-139222736D01*
X39605739Y-139222743D01*
X39777256Y-139394260D01*
X39777262Y-139394265D01*
X39969711Y-139541936D01*
X40179788Y-139663224D01*
X40403900Y-139756054D01*
X40638211Y-139818838D01*
X40818586Y-139842584D01*
X40878711Y-139850500D01*
X40878712Y-139850500D01*
X41121289Y-139850500D01*
X41169388Y-139844167D01*
X41361789Y-139818838D01*
X41596100Y-139756054D01*
X41820212Y-139663224D01*
X42030289Y-139541936D01*
X42222738Y-139394265D01*
X42394265Y-139222738D01*
X42541936Y-139030289D01*
X42663224Y-138820212D01*
X42756054Y-138596100D01*
X42818838Y-138361789D01*
X42850500Y-138121288D01*
X42850500Y-137878712D01*
X42850500Y-137878711D01*
X81149500Y-137878711D01*
X81149500Y-138121288D01*
X81181161Y-138361785D01*
X81243947Y-138596104D01*
X81336773Y-138820205D01*
X81336776Y-138820212D01*
X81458064Y-139030289D01*
X81458066Y-139030292D01*
X81458067Y-139030293D01*
X81605733Y-139222736D01*
X81605739Y-139222743D01*
X81777256Y-139394260D01*
X81777262Y-139394265D01*
X81969711Y-139541936D01*
X82179788Y-139663224D01*
X82403900Y-139756054D01*
X82638211Y-139818838D01*
X82818586Y-139842584D01*
X82878711Y-139850500D01*
X82878712Y-139850500D01*
X83121289Y-139850500D01*
X83169388Y-139844167D01*
X83361789Y-139818838D01*
X83596100Y-139756054D01*
X83820212Y-139663224D01*
X84030289Y-139541936D01*
X84222738Y-139394265D01*
X84394265Y-139222738D01*
X84541936Y-139030289D01*
X84663224Y-138820212D01*
X84756054Y-138596100D01*
X84818838Y-138361789D01*
X84850500Y-138121288D01*
X84850500Y-137878712D01*
X84818838Y-137638211D01*
X84756054Y-137403900D01*
X84663224Y-137179788D01*
X84541936Y-136969711D01*
X84394265Y-136777262D01*
X84394260Y-136777256D01*
X84222743Y-136605739D01*
X84222736Y-136605733D01*
X84030293Y-136458067D01*
X84030292Y-136458066D01*
X84030289Y-136458064D01*
X83820212Y-136336776D01*
X83820205Y-136336773D01*
X83596104Y-136243947D01*
X83361785Y-136181161D01*
X83121289Y-136149500D01*
X83121288Y-136149500D01*
X82878712Y-136149500D01*
X82878711Y-136149500D01*
X82638214Y-136181161D01*
X82403895Y-136243947D01*
X82179794Y-136336773D01*
X82179785Y-136336777D01*
X81969706Y-136458067D01*
X81777263Y-136605733D01*
X81777256Y-136605739D01*
X81605739Y-136777256D01*
X81605733Y-136777263D01*
X81458067Y-136969706D01*
X81336777Y-137179785D01*
X81336773Y-137179794D01*
X81243947Y-137403895D01*
X81181161Y-137638214D01*
X81149500Y-137878711D01*
X42850500Y-137878711D01*
X42818838Y-137638211D01*
X42756054Y-137403900D01*
X42663224Y-137179788D01*
X42541936Y-136969711D01*
X42394265Y-136777262D01*
X42394260Y-136777256D01*
X42222743Y-136605739D01*
X42222736Y-136605733D01*
X42030293Y-136458067D01*
X42030292Y-136458066D01*
X42030289Y-136458064D01*
X41820212Y-136336776D01*
X41820205Y-136336773D01*
X41596104Y-136243947D01*
X41361785Y-136181161D01*
X41121289Y-136149500D01*
X41121288Y-136149500D01*
X40878712Y-136149500D01*
X40878711Y-136149500D01*
X40638214Y-136181161D01*
X40403895Y-136243947D01*
X40179794Y-136336773D01*
X40179785Y-136336777D01*
X39969706Y-136458067D01*
X39777263Y-136605733D01*
X39777256Y-136605739D01*
X39605739Y-136777256D01*
X39605733Y-136777263D01*
X39458067Y-136969706D01*
X39336777Y-137179785D01*
X39336773Y-137179794D01*
X39243947Y-137403895D01*
X39181161Y-137638214D01*
X39149500Y-137878711D01*
X37500500Y-137878711D01*
X37500500Y-130184108D01*
X49999500Y-130184108D01*
X49999500Y-130315891D01*
X50033608Y-130443187D01*
X50062712Y-130493596D01*
X50099500Y-130557314D01*
X50099502Y-130557316D01*
X50192687Y-130650501D01*
X50194158Y-130651630D01*
X50195083Y-130652897D01*
X50198433Y-130656247D01*
X50197910Y-130656769D01*
X50235356Y-130708060D01*
X50239506Y-130777807D01*
X50205289Y-130838725D01*
X50194158Y-130848370D01*
X50192687Y-130849498D01*
X50099502Y-130942683D01*
X50099500Y-130942686D01*
X50033608Y-131056812D01*
X49999500Y-131184108D01*
X49999500Y-131315891D01*
X50033608Y-131443187D01*
X50066554Y-131500250D01*
X50099500Y-131557314D01*
X50099502Y-131557316D01*
X50192687Y-131650501D01*
X50194158Y-131651630D01*
X50195083Y-131652897D01*
X50198433Y-131656247D01*
X50197910Y-131656769D01*
X50235356Y-131708060D01*
X50239506Y-131777807D01*
X50205289Y-131838725D01*
X50194158Y-131848370D01*
X50192687Y-131849498D01*
X50099502Y-131942683D01*
X50099500Y-131942686D01*
X50033608Y-132056812D01*
X49999500Y-132184108D01*
X49999500Y-132315891D01*
X50033608Y-132443187D01*
X50066554Y-132500250D01*
X50099500Y-132557314D01*
X50192686Y-132650500D01*
X50306814Y-132716392D01*
X50434108Y-132750500D01*
X50434110Y-132750500D01*
X50565890Y-132750500D01*
X50565892Y-132750500D01*
X50693186Y-132716392D01*
X50807314Y-132650500D01*
X50900500Y-132557314D01*
X50900504Y-132557306D01*
X50901625Y-132555847D01*
X50902892Y-132554921D01*
X50906247Y-132551567D01*
X50906770Y-132552090D01*
X50958053Y-132514645D01*
X51027799Y-132510491D01*
X51088719Y-132544704D01*
X51098375Y-132555847D01*
X51099498Y-132557311D01*
X51099500Y-132557314D01*
X51192686Y-132650500D01*
X51306814Y-132716392D01*
X51434108Y-132750500D01*
X51434110Y-132750500D01*
X51565890Y-132750500D01*
X51565892Y-132750500D01*
X51693186Y-132716392D01*
X51807314Y-132650500D01*
X51900500Y-132557314D01*
X51900504Y-132557306D01*
X51901625Y-132555847D01*
X51902892Y-132554921D01*
X51906247Y-132551567D01*
X51906770Y-132552090D01*
X51958053Y-132514645D01*
X52027799Y-132510491D01*
X52088719Y-132544704D01*
X52098375Y-132555847D01*
X52099498Y-132557311D01*
X52099500Y-132557314D01*
X52192686Y-132650500D01*
X52306814Y-132716392D01*
X52434108Y-132750500D01*
X52434110Y-132750500D01*
X52565890Y-132750500D01*
X52565892Y-132750500D01*
X52693186Y-132716392D01*
X52807314Y-132650500D01*
X52900500Y-132557314D01*
X52900504Y-132557306D01*
X52901625Y-132555847D01*
X52902892Y-132554921D01*
X52906247Y-132551567D01*
X52906770Y-132552090D01*
X52958053Y-132514645D01*
X53027799Y-132510491D01*
X53088719Y-132544704D01*
X53098375Y-132555847D01*
X53099498Y-132557311D01*
X53099500Y-132557314D01*
X53192686Y-132650500D01*
X53306814Y-132716392D01*
X53434108Y-132750500D01*
X53434110Y-132750500D01*
X53565890Y-132750500D01*
X53565892Y-132750500D01*
X53693186Y-132716392D01*
X53807314Y-132650500D01*
X53900500Y-132557314D01*
X53900504Y-132557306D01*
X53901625Y-132555847D01*
X53902892Y-132554921D01*
X53906247Y-132551567D01*
X53906770Y-132552090D01*
X53958053Y-132514645D01*
X54027799Y-132510491D01*
X54088719Y-132544704D01*
X54098375Y-132555847D01*
X54099498Y-132557311D01*
X54099500Y-132557314D01*
X54192686Y-132650500D01*
X54306814Y-132716392D01*
X54434108Y-132750500D01*
X54434110Y-132750500D01*
X54565890Y-132750500D01*
X54565892Y-132750500D01*
X54693186Y-132716392D01*
X54807314Y-132650500D01*
X54900500Y-132557314D01*
X54966392Y-132443186D01*
X55000500Y-132315892D01*
X55000500Y-132184108D01*
X54966392Y-132056814D01*
X54900500Y-131942686D01*
X54807314Y-131849500D01*
X54807311Y-131849498D01*
X54805847Y-131848375D01*
X54804921Y-131847107D01*
X54801567Y-131843753D01*
X54802090Y-131843229D01*
X54764645Y-131791947D01*
X54760491Y-131722201D01*
X54794704Y-131661281D01*
X54805847Y-131651625D01*
X54807306Y-131650504D01*
X54807314Y-131650500D01*
X54900500Y-131557314D01*
X54966392Y-131443186D01*
X55000500Y-131315892D01*
X55000500Y-131184108D01*
X54966392Y-131056814D01*
X54900500Y-130942686D01*
X54807314Y-130849500D01*
X54807311Y-130849498D01*
X54805847Y-130848375D01*
X54804921Y-130847107D01*
X54801567Y-130843753D01*
X54802090Y-130843229D01*
X54764645Y-130791947D01*
X54760491Y-130722201D01*
X54794704Y-130661281D01*
X54805847Y-130651625D01*
X54807306Y-130650504D01*
X54807314Y-130650500D01*
X54900500Y-130557314D01*
X54966392Y-130443186D01*
X55000500Y-130315892D01*
X55000500Y-130184108D01*
X54966392Y-130056814D01*
X54961213Y-130047844D01*
X80297500Y-130047844D01*
X80303901Y-130107372D01*
X80303903Y-130107379D01*
X80354145Y-130242086D01*
X80354149Y-130242093D01*
X80440309Y-130357187D01*
X80440312Y-130357190D01*
X80555406Y-130443350D01*
X80555413Y-130443354D01*
X80690120Y-130493596D01*
X80690127Y-130493598D01*
X80749655Y-130499999D01*
X80749672Y-130500000D01*
X83087500Y-130500000D01*
X83087500Y-129250000D01*
X80297500Y-129250000D01*
X80297500Y-130047844D01*
X54961213Y-130047844D01*
X54900500Y-129942686D01*
X54807314Y-129849500D01*
X54750250Y-129816554D01*
X54693187Y-129783608D01*
X54629539Y-129766554D01*
X54565892Y-129749500D01*
X54434108Y-129749500D01*
X54306812Y-129783608D01*
X54192686Y-129849500D01*
X54192683Y-129849502D01*
X54099498Y-129942687D01*
X54098370Y-129944158D01*
X54097102Y-129945083D01*
X54093753Y-129948433D01*
X54093230Y-129947910D01*
X54041940Y-129985356D01*
X53972193Y-129989506D01*
X53911275Y-129955289D01*
X53901630Y-129944158D01*
X53900501Y-129942687D01*
X53807316Y-129849502D01*
X53807314Y-129849500D01*
X53750250Y-129816554D01*
X53693187Y-129783608D01*
X53629539Y-129766554D01*
X53565892Y-129749500D01*
X53434108Y-129749500D01*
X53306812Y-129783608D01*
X53192686Y-129849500D01*
X53192683Y-129849502D01*
X53099498Y-129942687D01*
X53098370Y-129944158D01*
X53097102Y-129945083D01*
X53093753Y-129948433D01*
X53093230Y-129947910D01*
X53041940Y-129985356D01*
X52972193Y-129989506D01*
X52911275Y-129955289D01*
X52901630Y-129944158D01*
X52900501Y-129942687D01*
X52807316Y-129849502D01*
X52807314Y-129849500D01*
X52750250Y-129816554D01*
X52693187Y-129783608D01*
X52629539Y-129766554D01*
X52565892Y-129749500D01*
X52434108Y-129749500D01*
X52306812Y-129783608D01*
X52192686Y-129849500D01*
X52192683Y-129849502D01*
X52099498Y-129942687D01*
X52098370Y-129944158D01*
X52097102Y-129945083D01*
X52093753Y-129948433D01*
X52093230Y-129947910D01*
X52041940Y-129985356D01*
X51972193Y-129989506D01*
X51911275Y-129955289D01*
X51901630Y-129944158D01*
X51900501Y-129942687D01*
X51807316Y-129849502D01*
X51807314Y-129849500D01*
X51750250Y-129816554D01*
X51693187Y-129783608D01*
X51629539Y-129766554D01*
X51565892Y-129749500D01*
X51434108Y-129749500D01*
X51306812Y-129783608D01*
X51192686Y-129849500D01*
X51192683Y-129849502D01*
X51099498Y-129942687D01*
X51098370Y-129944158D01*
X51097102Y-129945083D01*
X51093753Y-129948433D01*
X51093230Y-129947910D01*
X51041940Y-129985356D01*
X50972193Y-129989506D01*
X50911275Y-129955289D01*
X50901630Y-129944158D01*
X50900501Y-129942687D01*
X50807316Y-129849502D01*
X50807314Y-129849500D01*
X50750250Y-129816554D01*
X50693187Y-129783608D01*
X50629539Y-129766554D01*
X50565892Y-129749500D01*
X50434108Y-129749500D01*
X50306812Y-129783608D01*
X50192686Y-129849500D01*
X50192683Y-129849502D01*
X50099502Y-129942683D01*
X50099500Y-129942686D01*
X50033608Y-130056812D01*
X49999500Y-130184108D01*
X37500500Y-130184108D01*
X37500500Y-127952155D01*
X80297500Y-127952155D01*
X80297500Y-128750000D01*
X83087500Y-128750000D01*
X83087500Y-127500000D01*
X80749655Y-127500000D01*
X80690127Y-127506401D01*
X80690120Y-127506403D01*
X80555413Y-127556645D01*
X80555406Y-127556649D01*
X80440312Y-127642809D01*
X80440309Y-127642812D01*
X80354149Y-127757906D01*
X80354145Y-127757913D01*
X80303903Y-127892620D01*
X80303901Y-127892627D01*
X80297500Y-127952155D01*
X37500500Y-127952155D01*
X37500500Y-122047844D01*
X80297500Y-122047844D01*
X80303901Y-122107372D01*
X80303903Y-122107379D01*
X80354145Y-122242086D01*
X80354149Y-122242093D01*
X80440309Y-122357187D01*
X80440312Y-122357190D01*
X80555406Y-122443350D01*
X80555413Y-122443354D01*
X80690120Y-122493596D01*
X80690127Y-122493598D01*
X80749655Y-122499999D01*
X80749672Y-122500000D01*
X83087500Y-122500000D01*
X83087500Y-121250000D01*
X80297500Y-121250000D01*
X80297500Y-122047844D01*
X37500500Y-122047844D01*
X37500500Y-119445943D01*
X43899500Y-119445943D01*
X43899500Y-119604057D01*
X43909885Y-119642812D01*
X43940423Y-119756783D01*
X43940426Y-119756790D01*
X44019475Y-119893709D01*
X44019479Y-119893714D01*
X44019480Y-119893716D01*
X44131284Y-120005520D01*
X44131286Y-120005521D01*
X44131290Y-120005524D01*
X44268209Y-120084573D01*
X44268216Y-120084577D01*
X44420943Y-120125500D01*
X44420945Y-120125500D01*
X44579055Y-120125500D01*
X44579057Y-120125500D01*
X44731784Y-120084577D01*
X44868716Y-120005520D01*
X44922081Y-119952155D01*
X80297500Y-119952155D01*
X80297500Y-120750000D01*
X83087500Y-120750000D01*
X83087500Y-119500000D01*
X80749655Y-119500000D01*
X80690127Y-119506401D01*
X80690120Y-119506403D01*
X80555413Y-119556645D01*
X80555406Y-119556649D01*
X80440312Y-119642809D01*
X80440309Y-119642812D01*
X80354149Y-119757906D01*
X80354145Y-119757913D01*
X80303903Y-119892620D01*
X80303901Y-119892627D01*
X80297500Y-119952155D01*
X44922081Y-119952155D01*
X44980520Y-119893716D01*
X45059577Y-119756784D01*
X45100500Y-119604057D01*
X45100500Y-119445943D01*
X45059577Y-119293216D01*
X45059573Y-119293209D01*
X44980524Y-119156290D01*
X44980518Y-119156282D01*
X44868717Y-119044481D01*
X44868709Y-119044475D01*
X44731790Y-118965426D01*
X44731786Y-118965424D01*
X44731784Y-118965423D01*
X44579057Y-118924500D01*
X44420943Y-118924500D01*
X44268216Y-118965423D01*
X44268209Y-118965426D01*
X44131290Y-119044475D01*
X44131282Y-119044481D01*
X44019481Y-119156282D01*
X44019475Y-119156290D01*
X43940426Y-119293209D01*
X43940423Y-119293216D01*
X43899500Y-119445943D01*
X37500500Y-119445943D01*
X37500500Y-116904108D01*
X52869500Y-116904108D01*
X52869500Y-117035891D01*
X52903608Y-117163187D01*
X52931641Y-117211740D01*
X52969500Y-117277314D01*
X53062686Y-117370500D01*
X53176814Y-117436392D01*
X53304108Y-117470500D01*
X53304110Y-117470500D01*
X53435890Y-117470500D01*
X53435892Y-117470500D01*
X53563186Y-117436392D01*
X53677314Y-117370500D01*
X53739395Y-117308419D01*
X53800718Y-117274934D01*
X53827076Y-117272100D01*
X57069769Y-117272100D01*
X57069772Y-117272100D01*
X57092602Y-117265982D01*
X57146605Y-117251514D01*
X57146607Y-117251513D01*
X57215494Y-117211740D01*
X58041740Y-116385494D01*
X58372029Y-116055205D01*
X58433352Y-116021720D01*
X58503044Y-116026704D01*
X58547391Y-116055205D01*
X58592686Y-116100500D01*
X58706814Y-116166392D01*
X58834108Y-116200500D01*
X58834110Y-116200500D01*
X58965890Y-116200500D01*
X58965892Y-116200500D01*
X59093186Y-116166392D01*
X59207314Y-116100500D01*
X59300500Y-116007314D01*
X59366392Y-115893186D01*
X59400500Y-115765892D01*
X59400500Y-115634108D01*
X59366392Y-115506814D01*
X59300500Y-115392686D01*
X59207314Y-115299500D01*
X59150250Y-115266554D01*
X59093187Y-115233608D01*
X59029539Y-115216554D01*
X58965892Y-115199500D01*
X58834108Y-115199500D01*
X58706812Y-115233608D01*
X58592686Y-115299500D01*
X58592683Y-115299502D01*
X58530605Y-115361581D01*
X58469282Y-115395066D01*
X58442924Y-115397900D01*
X58260224Y-115397900D01*
X58183394Y-115418485D01*
X58114503Y-115458261D01*
X57614506Y-115958260D01*
X56941185Y-116631581D01*
X56879862Y-116665066D01*
X56853504Y-116667900D01*
X53827076Y-116667900D01*
X53760037Y-116648215D01*
X53739395Y-116631581D01*
X53677316Y-116569502D01*
X53677314Y-116569500D01*
X53620250Y-116536554D01*
X53563187Y-116503608D01*
X53499539Y-116486554D01*
X53435892Y-116469500D01*
X53304108Y-116469500D01*
X53176812Y-116503608D01*
X53062686Y-116569500D01*
X53062683Y-116569502D01*
X52969502Y-116662683D01*
X52969500Y-116662686D01*
X52903608Y-116776812D01*
X52869500Y-116904108D01*
X37500500Y-116904108D01*
X37500500Y-114047844D01*
X80297500Y-114047844D01*
X80303901Y-114107372D01*
X80303903Y-114107379D01*
X80354145Y-114242086D01*
X80354149Y-114242093D01*
X80440309Y-114357187D01*
X80440312Y-114357190D01*
X80555406Y-114443350D01*
X80555413Y-114443354D01*
X80690120Y-114493596D01*
X80690127Y-114493598D01*
X80749655Y-114499999D01*
X80749672Y-114500000D01*
X83087500Y-114500000D01*
X83087500Y-113250000D01*
X80297500Y-113250000D01*
X80297500Y-114047844D01*
X37500500Y-114047844D01*
X37500500Y-113094108D01*
X52299500Y-113094108D01*
X52299500Y-113225891D01*
X52333608Y-113353187D01*
X52366554Y-113410250D01*
X52399500Y-113467314D01*
X52492686Y-113560500D01*
X52606814Y-113626392D01*
X52734108Y-113660500D01*
X52734110Y-113660500D01*
X52865890Y-113660500D01*
X52865892Y-113660500D01*
X52993186Y-113626392D01*
X53107314Y-113560500D01*
X53179395Y-113488419D01*
X53240718Y-113454934D01*
X53267076Y-113452100D01*
X58542924Y-113452100D01*
X58609963Y-113471785D01*
X58630605Y-113488419D01*
X58692686Y-113550500D01*
X58806814Y-113616392D01*
X58934108Y-113650500D01*
X58934110Y-113650500D01*
X59065890Y-113650500D01*
X59065892Y-113650500D01*
X59193186Y-113616392D01*
X59307314Y-113550500D01*
X59400500Y-113457314D01*
X59466392Y-113343186D01*
X59500500Y-113215892D01*
X59500500Y-113084108D01*
X59466392Y-112956814D01*
X59400500Y-112842686D01*
X59307314Y-112749500D01*
X59250250Y-112716554D01*
X59193187Y-112683608D01*
X59129539Y-112666554D01*
X59065892Y-112649500D01*
X58934108Y-112649500D01*
X58806812Y-112683608D01*
X58692686Y-112749500D01*
X58692683Y-112749502D01*
X58630605Y-112811581D01*
X58569282Y-112845066D01*
X58542924Y-112847900D01*
X53247076Y-112847900D01*
X53180037Y-112828215D01*
X53159395Y-112811581D01*
X53107316Y-112759502D01*
X53107314Y-112759500D01*
X53050250Y-112726554D01*
X52993187Y-112693608D01*
X52929539Y-112676554D01*
X52865892Y-112659500D01*
X52734108Y-112659500D01*
X52606812Y-112693608D01*
X52492686Y-112759500D01*
X52492683Y-112759502D01*
X52399502Y-112852683D01*
X52399500Y-112852686D01*
X52333608Y-112966812D01*
X52299500Y-113094108D01*
X37500500Y-113094108D01*
X37500500Y-111795943D01*
X61799500Y-111795943D01*
X61799500Y-111954056D01*
X61840423Y-112106783D01*
X61840426Y-112106790D01*
X61919475Y-112243709D01*
X61919479Y-112243714D01*
X61919480Y-112243716D01*
X62031284Y-112355520D01*
X62031286Y-112355521D01*
X62031290Y-112355524D01*
X62168209Y-112434573D01*
X62168216Y-112434577D01*
X62320943Y-112475500D01*
X62320945Y-112475500D01*
X62479055Y-112475500D01*
X62479057Y-112475500D01*
X62631784Y-112434577D01*
X62768716Y-112355520D01*
X62880520Y-112243716D01*
X62959577Y-112106784D01*
X63000500Y-111954057D01*
X63000500Y-111952155D01*
X80297500Y-111952155D01*
X80297500Y-112750000D01*
X83087500Y-112750000D01*
X83087500Y-111500000D01*
X80749655Y-111500000D01*
X80690127Y-111506401D01*
X80690120Y-111506403D01*
X80555413Y-111556645D01*
X80555406Y-111556649D01*
X80440312Y-111642809D01*
X80440309Y-111642812D01*
X80354149Y-111757906D01*
X80354145Y-111757913D01*
X80303903Y-111892620D01*
X80303901Y-111892627D01*
X80297500Y-111952155D01*
X63000500Y-111952155D01*
X63000500Y-111795943D01*
X62959577Y-111643216D01*
X62959342Y-111642809D01*
X62880524Y-111506290D01*
X62880518Y-111506282D01*
X62768717Y-111394481D01*
X62768709Y-111394475D01*
X62631790Y-111315426D01*
X62631786Y-111315424D01*
X62631784Y-111315423D01*
X62479057Y-111274500D01*
X62320943Y-111274500D01*
X62168216Y-111315423D01*
X62168209Y-111315426D01*
X62031290Y-111394475D01*
X62031282Y-111394481D01*
X61919481Y-111506282D01*
X61919475Y-111506290D01*
X61840426Y-111643209D01*
X61840423Y-111643216D01*
X61799500Y-111795943D01*
X37500500Y-111795943D01*
X37500500Y-108820943D01*
X51249500Y-108820943D01*
X51249500Y-108979056D01*
X51290423Y-109131783D01*
X51290426Y-109131790D01*
X51369475Y-109268709D01*
X51369479Y-109268714D01*
X51369480Y-109268716D01*
X51481284Y-109380520D01*
X51481286Y-109380521D01*
X51481290Y-109380524D01*
X51618209Y-109459573D01*
X51618216Y-109459577D01*
X51770943Y-109500500D01*
X51770945Y-109500500D01*
X51929055Y-109500500D01*
X51929057Y-109500500D01*
X52081784Y-109459577D01*
X52218716Y-109380520D01*
X52330520Y-109268716D01*
X52409577Y-109131784D01*
X52450500Y-108979057D01*
X52450500Y-108820943D01*
X52409577Y-108668216D01*
X52409573Y-108668209D01*
X52330524Y-108531290D01*
X52330518Y-108531282D01*
X52218717Y-108419481D01*
X52218709Y-108419475D01*
X52081790Y-108340426D01*
X52081786Y-108340424D01*
X52081784Y-108340423D01*
X51929057Y-108299500D01*
X51770943Y-108299500D01*
X51618216Y-108340423D01*
X51618209Y-108340426D01*
X51481290Y-108419475D01*
X51481282Y-108419481D01*
X51369481Y-108531282D01*
X51369475Y-108531290D01*
X51290426Y-108668209D01*
X51290423Y-108668216D01*
X51249500Y-108820943D01*
X37500500Y-108820943D01*
X37500500Y-106047844D01*
X80297500Y-106047844D01*
X80303901Y-106107372D01*
X80303903Y-106107379D01*
X80354145Y-106242086D01*
X80354149Y-106242093D01*
X80440309Y-106357187D01*
X80440312Y-106357190D01*
X80555406Y-106443350D01*
X80555413Y-106443354D01*
X80690120Y-106493596D01*
X80690127Y-106493598D01*
X80749655Y-106499999D01*
X80749672Y-106500000D01*
X83087500Y-106500000D01*
X83087500Y-105250000D01*
X80297500Y-105250000D01*
X80297500Y-106047844D01*
X37500500Y-106047844D01*
X37500500Y-103952155D01*
X80297500Y-103952155D01*
X80297500Y-104750000D01*
X83087500Y-104750000D01*
X83087500Y-103500000D01*
X80749655Y-103500000D01*
X80690127Y-103506401D01*
X80690120Y-103506403D01*
X80555413Y-103556645D01*
X80555406Y-103556649D01*
X80440312Y-103642809D01*
X80440309Y-103642812D01*
X80354149Y-103757906D01*
X80354145Y-103757913D01*
X80303903Y-103892620D01*
X80303901Y-103892627D01*
X80297500Y-103952155D01*
X37500500Y-103952155D01*
X37500500Y-95878711D01*
X39149500Y-95878711D01*
X39149500Y-96121288D01*
X39181161Y-96361785D01*
X39243947Y-96596104D01*
X39336773Y-96820205D01*
X39336776Y-96820212D01*
X39458064Y-97030289D01*
X39458066Y-97030292D01*
X39458067Y-97030293D01*
X39605733Y-97222736D01*
X39605739Y-97222743D01*
X39777256Y-97394260D01*
X39777262Y-97394265D01*
X39969711Y-97541936D01*
X40179788Y-97663224D01*
X40403900Y-97756054D01*
X40638211Y-97818838D01*
X40818586Y-97842584D01*
X40878711Y-97850500D01*
X40878712Y-97850500D01*
X41121289Y-97850500D01*
X41169388Y-97844167D01*
X41361789Y-97818838D01*
X41596100Y-97756054D01*
X41820212Y-97663224D01*
X42030289Y-97541936D01*
X42222738Y-97394265D01*
X42394265Y-97222738D01*
X42541936Y-97030289D01*
X42663224Y-96820212D01*
X42756054Y-96596100D01*
X42818838Y-96361789D01*
X42850500Y-96121288D01*
X42850500Y-95878712D01*
X42850500Y-95878711D01*
X81149500Y-95878711D01*
X81149500Y-96121288D01*
X81181161Y-96361785D01*
X81243947Y-96596104D01*
X81336773Y-96820205D01*
X81336776Y-96820212D01*
X81458064Y-97030289D01*
X81458066Y-97030292D01*
X81458067Y-97030293D01*
X81605733Y-97222736D01*
X81605739Y-97222743D01*
X81777256Y-97394260D01*
X81777262Y-97394265D01*
X81969711Y-97541936D01*
X82179788Y-97663224D01*
X82403900Y-97756054D01*
X82638211Y-97818838D01*
X82818586Y-97842584D01*
X82878711Y-97850500D01*
X82878712Y-97850500D01*
X83121289Y-97850500D01*
X83169388Y-97844167D01*
X83361789Y-97818838D01*
X83596100Y-97756054D01*
X83820212Y-97663224D01*
X84030289Y-97541936D01*
X84222738Y-97394265D01*
X84394265Y-97222738D01*
X84541936Y-97030289D01*
X84663224Y-96820212D01*
X84756054Y-96596100D01*
X84818838Y-96361789D01*
X84850500Y-96121288D01*
X84850500Y-95878712D01*
X84818838Y-95638211D01*
X84756054Y-95403900D01*
X84663224Y-95179788D01*
X84541936Y-94969711D01*
X84394265Y-94777262D01*
X84394260Y-94777256D01*
X84222743Y-94605739D01*
X84222736Y-94605733D01*
X84030293Y-94458067D01*
X84030292Y-94458066D01*
X84030289Y-94458064D01*
X83820212Y-94336776D01*
X83820205Y-94336773D01*
X83596104Y-94243947D01*
X83361785Y-94181161D01*
X83121289Y-94149500D01*
X83121288Y-94149500D01*
X82878712Y-94149500D01*
X82878711Y-94149500D01*
X82638214Y-94181161D01*
X82403895Y-94243947D01*
X82179794Y-94336773D01*
X82179785Y-94336777D01*
X81969706Y-94458067D01*
X81777263Y-94605733D01*
X81777256Y-94605739D01*
X81605739Y-94777256D01*
X81605733Y-94777263D01*
X81458067Y-94969706D01*
X81336777Y-95179785D01*
X81336773Y-95179794D01*
X81243947Y-95403895D01*
X81181161Y-95638214D01*
X81149500Y-95878711D01*
X42850500Y-95878711D01*
X42818838Y-95638211D01*
X42756054Y-95403900D01*
X42663224Y-95179788D01*
X42541936Y-94969711D01*
X42394265Y-94777262D01*
X42394260Y-94777256D01*
X42222743Y-94605739D01*
X42222736Y-94605733D01*
X42030293Y-94458067D01*
X42030292Y-94458066D01*
X42030289Y-94458064D01*
X41820212Y-94336776D01*
X41820205Y-94336773D01*
X41596104Y-94243947D01*
X41361785Y-94181161D01*
X41121289Y-94149500D01*
X41121288Y-94149500D01*
X40878712Y-94149500D01*
X40878711Y-94149500D01*
X40638214Y-94181161D01*
X40403895Y-94243947D01*
X40179794Y-94336773D01*
X40179785Y-94336777D01*
X39969706Y-94458067D01*
X39777263Y-94605733D01*
X39777256Y-94605739D01*
X39605739Y-94777256D01*
X39605733Y-94777263D01*
X39458067Y-94969706D01*
X39336777Y-95179785D01*
X39336773Y-95179794D01*
X39243947Y-95403895D01*
X39181161Y-95638214D01*
X39149500Y-95878711D01*
X37500500Y-95878711D01*
X37500500Y-92624500D01*
X37520185Y-92557461D01*
X37572989Y-92511706D01*
X37624500Y-92500500D01*
X86375500Y-92500500D01*
X86442539Y-92520185D01*
G37*
G04 #@! TD.AperFunction*
M02*
