%TF.GenerationSoftware,KiCad,Pcbnew,9.0.1*%
%TF.CreationDate,2025-06-27T23:52:13+02:00*%
%TF.ProjectId,NPI,4e50492e-6b69-4636-9164-5f7063625858,rev?*%
%TF.SameCoordinates,Original*%
%TF.FileFunction,Drillmap*%
%TF.FilePolarity,Positive*%
%FSLAX45Y45*%
G04 Gerber Fmt 4.5, Leading zero omitted, Abs format (unit mm)*
G04 Created by KiCad (PCBNEW 9.0.1) date 2025-06-27 23:52:13*
%MOMM*%
%LPD*%
G01*
G04 APERTURE LIST*
%ADD10C,0.050000*%
%ADD11C,0.200000*%
%ADD12C,0.100000*%
G04 APERTURE END LIST*
D10*
X3700000Y-9200000D02*
X8700000Y-9200000D01*
X8700000Y-14200000D01*
X3700000Y-14200000D01*
X3700000Y-9200000D01*
D11*
D12*
X3785000Y-9885000D02*
X3815000Y-9915000D01*
X3815000Y-9885000D02*
X3785000Y-9915000D01*
X3785000Y-9985000D02*
X3815000Y-10015000D01*
X3815000Y-9985000D02*
X3785000Y-10015000D01*
X3785000Y-10085000D02*
X3815000Y-10115000D01*
X3815000Y-10085000D02*
X3785000Y-10115000D01*
X3785000Y-10185000D02*
X3815000Y-10215000D01*
X3815000Y-10185000D02*
X3785000Y-10215000D01*
X3785000Y-10285000D02*
X3815000Y-10315000D01*
X3815000Y-10285000D02*
X3785000Y-10315000D01*
X3785000Y-10385000D02*
X3815000Y-10415000D01*
X3815000Y-10385000D02*
X3785000Y-10415000D01*
X3785000Y-10485000D02*
X3815000Y-10515000D01*
X3815000Y-10485000D02*
X3785000Y-10515000D01*
X3785000Y-10585000D02*
X3815000Y-10615000D01*
X3815000Y-10585000D02*
X3785000Y-10615000D01*
X3785000Y-10685000D02*
X3815000Y-10715000D01*
X3815000Y-10685000D02*
X3785000Y-10715000D01*
X3785000Y-10785000D02*
X3815000Y-10815000D01*
X3815000Y-10785000D02*
X3785000Y-10815000D01*
X3785000Y-10885000D02*
X3815000Y-10915000D01*
X3815000Y-10885000D02*
X3785000Y-10915000D01*
X3785000Y-10985000D02*
X3815000Y-11015000D01*
X3815000Y-10985000D02*
X3785000Y-11015000D01*
X3785000Y-11085000D02*
X3815000Y-11115000D01*
X3815000Y-11085000D02*
X3785000Y-11115000D01*
X3785000Y-11185000D02*
X3815000Y-11215000D01*
X3815000Y-11185000D02*
X3785000Y-11215000D01*
X3785000Y-11285000D02*
X3815000Y-11315000D01*
X3815000Y-11285000D02*
X3785000Y-11315000D01*
X3785000Y-11385000D02*
X3815000Y-11415000D01*
X3815000Y-11385000D02*
X3785000Y-11415000D01*
X3785000Y-11485000D02*
X3815000Y-11515000D01*
X3815000Y-11485000D02*
X3785000Y-11515000D01*
X3785000Y-11585000D02*
X3815000Y-11615000D01*
X3815000Y-11585000D02*
X3785000Y-11615000D01*
X3785000Y-11685000D02*
X3815000Y-11715000D01*
X3815000Y-11685000D02*
X3785000Y-11715000D01*
X3785000Y-11785000D02*
X3815000Y-11815000D01*
X3815000Y-11785000D02*
X3785000Y-11815000D01*
X3785000Y-11885000D02*
X3815000Y-11915000D01*
X3815000Y-11885000D02*
X3785000Y-11915000D01*
X3785000Y-11985000D02*
X3815000Y-12015000D01*
X3815000Y-11985000D02*
X3785000Y-12015000D01*
X3785000Y-12085000D02*
X3815000Y-12115000D01*
X3815000Y-12085000D02*
X3785000Y-12115000D01*
X3785000Y-12185000D02*
X3815000Y-12215000D01*
X3815000Y-12185000D02*
X3785000Y-12215000D01*
X3785000Y-12285000D02*
X3815000Y-12315000D01*
X3815000Y-12285000D02*
X3785000Y-12315000D01*
X3785000Y-12385000D02*
X3815000Y-12415000D01*
X3815000Y-12385000D02*
X3785000Y-12415000D01*
X3785000Y-12485000D02*
X3815000Y-12515000D01*
X3815000Y-12485000D02*
X3785000Y-12515000D01*
X3785000Y-12585000D02*
X3815000Y-12615000D01*
X3815000Y-12585000D02*
X3785000Y-12615000D01*
X3785000Y-12685000D02*
X3815000Y-12715000D01*
X3815000Y-12685000D02*
X3785000Y-12715000D01*
X3785000Y-12785000D02*
X3815000Y-12815000D01*
X3815000Y-12785000D02*
X3785000Y-12815000D01*
X3785000Y-12885000D02*
X3815000Y-12915000D01*
X3815000Y-12885000D02*
X3785000Y-12915000D01*
X3785000Y-12985000D02*
X3815000Y-13015000D01*
X3815000Y-12985000D02*
X3785000Y-13015000D01*
X3785000Y-13085000D02*
X3815000Y-13115000D01*
X3815000Y-13085000D02*
X3785000Y-13115000D01*
X3785000Y-13185000D02*
X3815000Y-13215000D01*
X3815000Y-13185000D02*
X3785000Y-13215000D01*
X3785000Y-13285000D02*
X3815000Y-13315000D01*
X3815000Y-13285000D02*
X3785000Y-13315000D01*
X3785000Y-13385000D02*
X3815000Y-13415000D01*
X3815000Y-13385000D02*
X3785000Y-13415000D01*
X3785000Y-13485000D02*
X3815000Y-13515000D01*
X3815000Y-13485000D02*
X3785000Y-13515000D01*
X4385000Y-9285000D02*
X4415000Y-9315000D01*
X4415000Y-9285000D02*
X4385000Y-9315000D01*
X4385000Y-14085000D02*
X4415000Y-14115000D01*
X4415000Y-14085000D02*
X4385000Y-14115000D01*
X4485000Y-9285000D02*
X4515000Y-9315000D01*
X4515000Y-9285000D02*
X4485000Y-9315000D01*
X4485000Y-14085000D02*
X4515000Y-14115000D01*
X4515000Y-14085000D02*
X4485000Y-14115000D01*
X4585000Y-9285000D02*
X4615000Y-9315000D01*
X4615000Y-9285000D02*
X4585000Y-9315000D01*
X4585000Y-14085000D02*
X4615000Y-14115000D01*
X4615000Y-14085000D02*
X4585000Y-14115000D01*
X4685000Y-9285000D02*
X4715000Y-9315000D01*
X4715000Y-9285000D02*
X4685000Y-9315000D01*
X4685000Y-14085000D02*
X4715000Y-14115000D01*
X4715000Y-14085000D02*
X4685000Y-14115000D01*
X4785000Y-9285000D02*
X4815000Y-9315000D01*
X4815000Y-9285000D02*
X4785000Y-9315000D01*
X4785000Y-14085000D02*
X4815000Y-14115000D01*
X4815000Y-14085000D02*
X4785000Y-14115000D01*
X4885000Y-9285000D02*
X4915000Y-9315000D01*
X4915000Y-9285000D02*
X4885000Y-9315000D01*
X4885000Y-14085000D02*
X4915000Y-14115000D01*
X4915000Y-14085000D02*
X4885000Y-14115000D01*
X4985000Y-9285000D02*
X5015000Y-9315000D01*
X5015000Y-9285000D02*
X4985000Y-9315000D01*
X4985000Y-14085000D02*
X5015000Y-14115000D01*
X5015000Y-14085000D02*
X4985000Y-14115000D01*
X5035000Y-13010000D02*
X5065000Y-13040000D01*
X5065000Y-13010000D02*
X5035000Y-13040000D01*
X5035000Y-13110000D02*
X5065000Y-13140000D01*
X5065000Y-13110000D02*
X5035000Y-13140000D01*
X5035000Y-13210000D02*
X5065000Y-13240000D01*
X5065000Y-13210000D02*
X5035000Y-13240000D01*
X5085000Y-9285000D02*
X5115000Y-9315000D01*
X5115000Y-9285000D02*
X5085000Y-9315000D01*
X5085000Y-14085000D02*
X5115000Y-14115000D01*
X5115000Y-14085000D02*
X5085000Y-14115000D01*
X5135000Y-13010000D02*
X5165000Y-13040000D01*
X5165000Y-13010000D02*
X5135000Y-13040000D01*
X5135000Y-13110000D02*
X5165000Y-13140000D01*
X5165000Y-13110000D02*
X5135000Y-13140000D01*
X5135000Y-13210000D02*
X5165000Y-13240000D01*
X5165000Y-13210000D02*
X5135000Y-13240000D01*
X5185000Y-9285000D02*
X5215000Y-9315000D01*
X5215000Y-9285000D02*
X5185000Y-9315000D01*
X5185000Y-14085000D02*
X5215000Y-14115000D01*
X5215000Y-14085000D02*
X5185000Y-14115000D01*
X5235000Y-13010000D02*
X5265000Y-13040000D01*
X5265000Y-13010000D02*
X5235000Y-13040000D01*
X5235000Y-13110000D02*
X5265000Y-13140000D01*
X5265000Y-13110000D02*
X5235000Y-13140000D01*
X5235000Y-13210000D02*
X5265000Y-13240000D01*
X5265000Y-13210000D02*
X5235000Y-13240000D01*
X5265000Y-11301000D02*
X5295000Y-11331000D01*
X5295000Y-11301000D02*
X5265000Y-11331000D01*
X5285000Y-9285000D02*
X5315000Y-9315000D01*
X5315000Y-9285000D02*
X5285000Y-9315000D01*
X5285000Y-14085000D02*
X5315000Y-14115000D01*
X5315000Y-14085000D02*
X5285000Y-14115000D01*
X5322000Y-11682000D02*
X5352000Y-11712000D01*
X5352000Y-11682000D02*
X5322000Y-11712000D01*
X5335000Y-13010000D02*
X5365000Y-13040000D01*
X5365000Y-13010000D02*
X5335000Y-13040000D01*
X5335000Y-13110000D02*
X5365000Y-13140000D01*
X5365000Y-13110000D02*
X5335000Y-13140000D01*
X5335000Y-13210000D02*
X5365000Y-13240000D01*
X5365000Y-13210000D02*
X5335000Y-13240000D01*
X5385000Y-9285000D02*
X5415000Y-9315000D01*
X5415000Y-9285000D02*
X5385000Y-9315000D01*
X5385000Y-14085000D02*
X5415000Y-14115000D01*
X5415000Y-14085000D02*
X5385000Y-14115000D01*
X5435000Y-13010000D02*
X5465000Y-13040000D01*
X5465000Y-13010000D02*
X5435000Y-13040000D01*
X5435000Y-13110000D02*
X5465000Y-13140000D01*
X5465000Y-13110000D02*
X5435000Y-13140000D01*
X5435000Y-13210000D02*
X5465000Y-13240000D01*
X5465000Y-13210000D02*
X5435000Y-13240000D01*
X5485000Y-9285000D02*
X5515000Y-9315000D01*
X5515000Y-9285000D02*
X5485000Y-9315000D01*
X5485000Y-14085000D02*
X5515000Y-14115000D01*
X5515000Y-14085000D02*
X5485000Y-14115000D01*
X5585000Y-9285000D02*
X5615000Y-9315000D01*
X5615000Y-9285000D02*
X5585000Y-9315000D01*
X5585000Y-14085000D02*
X5615000Y-14115000D01*
X5615000Y-14085000D02*
X5585000Y-14115000D01*
X5685000Y-9285000D02*
X5715000Y-9315000D01*
X5715000Y-9285000D02*
X5685000Y-9315000D01*
X5685000Y-14085000D02*
X5715000Y-14115000D01*
X5715000Y-14085000D02*
X5685000Y-14115000D01*
X5785000Y-9285000D02*
X5815000Y-9315000D01*
X5815000Y-9285000D02*
X5785000Y-9315000D01*
X5785000Y-14085000D02*
X5815000Y-14115000D01*
X5815000Y-14085000D02*
X5785000Y-14115000D01*
X5875000Y-11555000D02*
X5905000Y-11585000D01*
X5905000Y-11555000D02*
X5875000Y-11585000D01*
X5885000Y-9285000D02*
X5915000Y-9315000D01*
X5915000Y-9285000D02*
X5885000Y-9315000D01*
X5885000Y-11300000D02*
X5915000Y-11330000D01*
X5915000Y-11300000D02*
X5885000Y-11330000D01*
X5885000Y-14085000D02*
X5915000Y-14115000D01*
X5915000Y-14085000D02*
X5885000Y-14115000D01*
X5985000Y-9285000D02*
X6015000Y-9315000D01*
X6015000Y-9285000D02*
X5985000Y-9315000D01*
X5985000Y-14085000D02*
X6015000Y-14115000D01*
X6015000Y-14085000D02*
X5985000Y-14115000D01*
X6085000Y-9285000D02*
X6115000Y-9315000D01*
X6115000Y-9285000D02*
X6085000Y-9315000D01*
X6085000Y-14085000D02*
X6115000Y-14115000D01*
X6115000Y-14085000D02*
X6085000Y-14115000D01*
X6185000Y-9285000D02*
X6215000Y-9315000D01*
X6215000Y-9285000D02*
X6185000Y-9315000D01*
X6185000Y-14085000D02*
X6215000Y-14115000D01*
X6215000Y-14085000D02*
X6185000Y-14115000D01*
X6285000Y-9285000D02*
X6315000Y-9315000D01*
X6315000Y-9285000D02*
X6285000Y-9315000D01*
X6285000Y-14085000D02*
X6315000Y-14115000D01*
X6315000Y-14085000D02*
X6285000Y-14115000D01*
X6335000Y-10585000D02*
X6365000Y-10615000D01*
X6365000Y-10585000D02*
X6335000Y-10615000D01*
X6335000Y-10685000D02*
X6365000Y-10715000D01*
X6365000Y-10685000D02*
X6335000Y-10715000D01*
X6335000Y-10785000D02*
X6365000Y-10815000D01*
X6365000Y-10785000D02*
X6335000Y-10815000D01*
X6335000Y-10885000D02*
X6365000Y-10915000D01*
X6365000Y-10885000D02*
X6335000Y-10915000D01*
X6335000Y-10985000D02*
X6365000Y-11015000D01*
X6365000Y-10985000D02*
X6335000Y-11015000D01*
X6335000Y-11085000D02*
X6365000Y-11115000D01*
X6365000Y-11085000D02*
X6335000Y-11115000D01*
X6335000Y-11185000D02*
X6365000Y-11215000D01*
X6365000Y-11185000D02*
X6335000Y-11215000D01*
X6335000Y-11285000D02*
X6365000Y-11315000D01*
X6365000Y-11285000D02*
X6335000Y-11315000D01*
X6335000Y-11885000D02*
X6365000Y-11915000D01*
X6365000Y-11885000D02*
X6335000Y-11915000D01*
X6335000Y-11985000D02*
X6365000Y-12015000D01*
X6365000Y-11985000D02*
X6335000Y-12015000D01*
X6335000Y-12085000D02*
X6365000Y-12115000D01*
X6365000Y-12085000D02*
X6335000Y-12115000D01*
X6335000Y-12185000D02*
X6365000Y-12215000D01*
X6365000Y-12185000D02*
X6335000Y-12215000D01*
X6335000Y-12285000D02*
X6365000Y-12315000D01*
X6365000Y-12285000D02*
X6335000Y-12315000D01*
X6385000Y-9285000D02*
X6415000Y-9315000D01*
X6415000Y-9285000D02*
X6385000Y-9315000D01*
X6385000Y-14085000D02*
X6415000Y-14115000D01*
X6415000Y-14085000D02*
X6385000Y-14115000D01*
X6435000Y-10535000D02*
X6465000Y-10565000D01*
X6465000Y-10535000D02*
X6435000Y-10565000D01*
X6435000Y-12285000D02*
X6465000Y-12315000D01*
X6465000Y-12285000D02*
X6435000Y-12315000D01*
X6485000Y-9285000D02*
X6515000Y-9315000D01*
X6515000Y-9285000D02*
X6485000Y-9315000D01*
X6485000Y-14085000D02*
X6515000Y-14115000D01*
X6515000Y-14085000D02*
X6485000Y-14115000D01*
X6535000Y-10535000D02*
X6565000Y-10565000D01*
X6565000Y-10535000D02*
X6535000Y-10565000D01*
X6535000Y-12285000D02*
X6565000Y-12315000D01*
X6565000Y-12285000D02*
X6535000Y-12315000D01*
X6585000Y-9285000D02*
X6615000Y-9315000D01*
X6615000Y-9285000D02*
X6585000Y-9315000D01*
X6585000Y-14085000D02*
X6615000Y-14115000D01*
X6615000Y-14085000D02*
X6585000Y-14115000D01*
X6635000Y-10535000D02*
X6665000Y-10565000D01*
X6665000Y-10535000D02*
X6635000Y-10565000D01*
X6635000Y-12285000D02*
X6665000Y-12315000D01*
X6665000Y-12285000D02*
X6635000Y-12315000D01*
X6685000Y-9285000D02*
X6715000Y-9315000D01*
X6715000Y-9285000D02*
X6685000Y-9315000D01*
X6685000Y-14085000D02*
X6715000Y-14115000D01*
X6715000Y-14085000D02*
X6685000Y-14115000D01*
X6735000Y-10535000D02*
X6765000Y-10565000D01*
X6765000Y-10535000D02*
X6735000Y-10565000D01*
X6735000Y-12285000D02*
X6765000Y-12315000D01*
X6765000Y-12285000D02*
X6735000Y-12315000D01*
X6785000Y-9285000D02*
X6815000Y-9315000D01*
X6815000Y-9285000D02*
X6785000Y-9315000D01*
X6785000Y-14085000D02*
X6815000Y-14115000D01*
X6815000Y-14085000D02*
X6785000Y-14115000D01*
X6835000Y-10535000D02*
X6865000Y-10565000D01*
X6865000Y-10535000D02*
X6835000Y-10565000D01*
X6835000Y-12285000D02*
X6865000Y-12315000D01*
X6865000Y-12285000D02*
X6835000Y-12315000D01*
X6885000Y-9285000D02*
X6915000Y-9315000D01*
X6915000Y-9285000D02*
X6885000Y-9315000D01*
X6885000Y-14085000D02*
X6915000Y-14115000D01*
X6915000Y-14085000D02*
X6885000Y-14115000D01*
X6935000Y-10535000D02*
X6965000Y-10565000D01*
X6965000Y-10535000D02*
X6935000Y-10565000D01*
X6935000Y-12285000D02*
X6965000Y-12315000D01*
X6965000Y-12285000D02*
X6935000Y-12315000D01*
X6985000Y-9285000D02*
X7015000Y-9315000D01*
X7015000Y-9285000D02*
X6985000Y-9315000D01*
X6985000Y-14085000D02*
X7015000Y-14115000D01*
X7015000Y-14085000D02*
X6985000Y-14115000D01*
X7035000Y-10535000D02*
X7065000Y-10565000D01*
X7065000Y-10535000D02*
X7035000Y-10565000D01*
X7035000Y-12285000D02*
X7065000Y-12315000D01*
X7065000Y-12285000D02*
X7035000Y-12315000D01*
X7035000Y-12385000D02*
X7065000Y-12415000D01*
X7065000Y-12385000D02*
X7035000Y-12415000D01*
X7035000Y-12485000D02*
X7065000Y-12515000D01*
X7065000Y-12485000D02*
X7035000Y-12515000D01*
X7035000Y-12585000D02*
X7065000Y-12615000D01*
X7065000Y-12585000D02*
X7035000Y-12615000D01*
X7035000Y-12685000D02*
X7065000Y-12715000D01*
X7065000Y-12685000D02*
X7035000Y-12715000D01*
X7035000Y-12785000D02*
X7065000Y-12815000D01*
X7065000Y-12785000D02*
X7035000Y-12815000D01*
X7085000Y-9285000D02*
X7115000Y-9315000D01*
X7115000Y-9285000D02*
X7085000Y-9315000D01*
X7085000Y-14085000D02*
X7115000Y-14115000D01*
X7115000Y-14085000D02*
X7085000Y-14115000D01*
X7135000Y-10535000D02*
X7165000Y-10565000D01*
X7165000Y-10535000D02*
X7135000Y-10565000D01*
X7135000Y-12785000D02*
X7165000Y-12815000D01*
X7165000Y-12785000D02*
X7135000Y-12815000D01*
X7185000Y-9285000D02*
X7215000Y-9315000D01*
X7215000Y-9285000D02*
X7185000Y-9315000D01*
X7185000Y-14085000D02*
X7215000Y-14115000D01*
X7215000Y-14085000D02*
X7185000Y-14115000D01*
X7235000Y-10535000D02*
X7265000Y-10565000D01*
X7265000Y-10535000D02*
X7235000Y-10565000D01*
X7235000Y-12785000D02*
X7265000Y-12815000D01*
X7265000Y-12785000D02*
X7235000Y-12815000D01*
X7285000Y-9285000D02*
X7315000Y-9315000D01*
X7315000Y-9285000D02*
X7285000Y-9315000D01*
X7285000Y-14085000D02*
X7315000Y-14115000D01*
X7315000Y-14085000D02*
X7285000Y-14115000D01*
X7335000Y-10535000D02*
X7365000Y-10565000D01*
X7365000Y-10535000D02*
X7335000Y-10565000D01*
X7335000Y-12785000D02*
X7365000Y-12815000D01*
X7365000Y-12785000D02*
X7335000Y-12815000D01*
X7385000Y-9285000D02*
X7415000Y-9315000D01*
X7415000Y-9285000D02*
X7385000Y-9315000D01*
X7385000Y-14085000D02*
X7415000Y-14115000D01*
X7415000Y-14085000D02*
X7385000Y-14115000D01*
X7435000Y-10535000D02*
X7465000Y-10565000D01*
X7465000Y-10535000D02*
X7435000Y-10565000D01*
X7435000Y-12785000D02*
X7465000Y-12815000D01*
X7465000Y-12785000D02*
X7435000Y-12815000D01*
X7485000Y-9285000D02*
X7515000Y-9315000D01*
X7515000Y-9285000D02*
X7485000Y-9315000D01*
X7485000Y-14085000D02*
X7515000Y-14115000D01*
X7515000Y-14085000D02*
X7485000Y-14115000D01*
X7535000Y-10535000D02*
X7565000Y-10565000D01*
X7565000Y-10535000D02*
X7535000Y-10565000D01*
X7535000Y-12785000D02*
X7565000Y-12815000D01*
X7565000Y-12785000D02*
X7535000Y-12815000D01*
X7585000Y-9285000D02*
X7615000Y-9315000D01*
X7615000Y-9285000D02*
X7585000Y-9315000D01*
X7585000Y-14085000D02*
X7615000Y-14115000D01*
X7615000Y-14085000D02*
X7585000Y-14115000D01*
X7635000Y-10535000D02*
X7665000Y-10565000D01*
X7665000Y-10535000D02*
X7635000Y-10565000D01*
X7635000Y-12785000D02*
X7665000Y-12815000D01*
X7665000Y-12785000D02*
X7635000Y-12815000D01*
X7685000Y-9285000D02*
X7715000Y-9315000D01*
X7715000Y-9285000D02*
X7685000Y-9315000D01*
X7685000Y-14085000D02*
X7715000Y-14115000D01*
X7715000Y-14085000D02*
X7685000Y-14115000D01*
X7735000Y-10535000D02*
X7765000Y-10565000D01*
X7765000Y-10535000D02*
X7735000Y-10565000D01*
X7735000Y-12785000D02*
X7765000Y-12815000D01*
X7765000Y-12785000D02*
X7735000Y-12815000D01*
X7785000Y-9285000D02*
X7815000Y-9315000D01*
X7815000Y-9285000D02*
X7785000Y-9315000D01*
X7785000Y-14085000D02*
X7815000Y-14115000D01*
X7815000Y-14085000D02*
X7785000Y-14115000D01*
X7835000Y-10535000D02*
X7865000Y-10565000D01*
X7865000Y-10535000D02*
X7835000Y-10565000D01*
X7835000Y-12785000D02*
X7865000Y-12815000D01*
X7865000Y-12785000D02*
X7835000Y-12815000D01*
X7885000Y-9285000D02*
X7915000Y-9315000D01*
X7915000Y-9285000D02*
X7885000Y-9315000D01*
X7885000Y-14085000D02*
X7915000Y-14115000D01*
X7915000Y-14085000D02*
X7885000Y-14115000D01*
X7935000Y-10535000D02*
X7965000Y-10565000D01*
X7965000Y-10535000D02*
X7935000Y-10565000D01*
X7935000Y-10635000D02*
X7965000Y-10665000D01*
X7965000Y-10635000D02*
X7935000Y-10665000D01*
X7935000Y-11085000D02*
X7965000Y-11115000D01*
X7965000Y-11085000D02*
X7935000Y-11115000D01*
X7935000Y-11185000D02*
X7965000Y-11215000D01*
X7965000Y-11185000D02*
X7935000Y-11215000D01*
X7935000Y-11285000D02*
X7965000Y-11315000D01*
X7965000Y-11285000D02*
X7935000Y-11315000D01*
X7935000Y-11385000D02*
X7965000Y-11415000D01*
X7965000Y-11385000D02*
X7935000Y-11415000D01*
X7935000Y-11485000D02*
X7965000Y-11515000D01*
X7965000Y-11485000D02*
X7935000Y-11515000D01*
X7935000Y-11585000D02*
X7965000Y-11615000D01*
X7965000Y-11585000D02*
X7935000Y-11615000D01*
X7935000Y-11685000D02*
X7965000Y-11715000D01*
X7965000Y-11685000D02*
X7935000Y-11715000D01*
X7935000Y-11785000D02*
X7965000Y-11815000D01*
X7965000Y-11785000D02*
X7935000Y-11815000D01*
X7935000Y-11885000D02*
X7965000Y-11915000D01*
X7965000Y-11885000D02*
X7935000Y-11915000D01*
X7935000Y-11985000D02*
X7965000Y-12015000D01*
X7965000Y-11985000D02*
X7935000Y-12015000D01*
X7935000Y-12085000D02*
X7965000Y-12115000D01*
X7965000Y-12085000D02*
X7935000Y-12115000D01*
X7935000Y-12185000D02*
X7965000Y-12215000D01*
X7965000Y-12185000D02*
X7935000Y-12215000D01*
X7935000Y-12285000D02*
X7965000Y-12315000D01*
X7965000Y-12285000D02*
X7935000Y-12315000D01*
X7935000Y-12685000D02*
X7965000Y-12715000D01*
X7965000Y-12685000D02*
X7935000Y-12715000D01*
X7935000Y-12785000D02*
X7965000Y-12815000D01*
X7965000Y-12785000D02*
X7935000Y-12815000D01*
X7985000Y-9285000D02*
X8015000Y-9315000D01*
X8015000Y-9285000D02*
X7985000Y-9315000D01*
X7985000Y-14085000D02*
X8015000Y-14115000D01*
X8015000Y-14085000D02*
X7985000Y-14115000D01*
X8585000Y-9885000D02*
X8615000Y-9915000D01*
X8615000Y-9885000D02*
X8585000Y-9915000D01*
X8585000Y-9985000D02*
X8615000Y-10015000D01*
X8615000Y-9985000D02*
X8585000Y-10015000D01*
X8585000Y-10085000D02*
X8615000Y-10115000D01*
X8615000Y-10085000D02*
X8585000Y-10115000D01*
X8585000Y-10185000D02*
X8615000Y-10215000D01*
X8615000Y-10185000D02*
X8585000Y-10215000D01*
X8585000Y-10285000D02*
X8615000Y-10315000D01*
X8615000Y-10285000D02*
X8585000Y-10315000D01*
X8585000Y-11485000D02*
X8615000Y-11515000D01*
X8615000Y-11485000D02*
X8585000Y-11515000D01*
X8585000Y-11585000D02*
X8615000Y-11615000D01*
X8615000Y-11585000D02*
X8585000Y-11615000D01*
X8585000Y-11685000D02*
X8615000Y-11715000D01*
X8615000Y-11685000D02*
X8585000Y-11715000D01*
X8585000Y-11785000D02*
X8615000Y-11815000D01*
X8615000Y-11785000D02*
X8585000Y-11815000D01*
X8585000Y-11885000D02*
X8615000Y-11915000D01*
X8615000Y-11885000D02*
X8585000Y-11915000D01*
X8585000Y-13085000D02*
X8615000Y-13115000D01*
X8615000Y-13085000D02*
X8585000Y-13115000D01*
X8585000Y-13185000D02*
X8615000Y-13215000D01*
X8615000Y-13185000D02*
X8585000Y-13215000D01*
X8585000Y-13285000D02*
X8615000Y-13315000D01*
X8615000Y-13285000D02*
X8585000Y-13315000D01*
X8585000Y-13385000D02*
X8615000Y-13415000D01*
X8615000Y-13385000D02*
X8585000Y-13415000D01*
X8585000Y-13485000D02*
X8615000Y-13515000D01*
X8615000Y-13485000D02*
X8585000Y-13515000D01*
X4475000Y-11952500D02*
G75*
G02*
X4425000Y-11952500I-25000J0D01*
G01*
X4425000Y-11952500D02*
G75*
G02*
X4475000Y-11952500I25000J0D01*
G01*
X5210000Y-10890000D02*
G75*
G02*
X5160000Y-10890000I-25000J0D01*
G01*
X5160000Y-10890000D02*
G75*
G02*
X5210000Y-10890000I25000J0D01*
G01*
X6265000Y-11187500D02*
G75*
G02*
X6215000Y-11187500I-25000J0D01*
G01*
X6215000Y-11187500D02*
G75*
G02*
X6265000Y-11187500I25000J0D01*
G01*
D11*
X3958277Y-14513984D02*
X3958277Y-14313984D01*
X3958277Y-14313984D02*
X4005896Y-14313984D01*
X4005896Y-14313984D02*
X4034467Y-14323508D01*
X4034467Y-14323508D02*
X4053515Y-14342555D01*
X4053515Y-14342555D02*
X4063039Y-14361603D01*
X4063039Y-14361603D02*
X4072562Y-14399698D01*
X4072562Y-14399698D02*
X4072562Y-14428269D01*
X4072562Y-14428269D02*
X4063039Y-14466365D01*
X4063039Y-14466365D02*
X4053515Y-14485412D01*
X4053515Y-14485412D02*
X4034467Y-14504460D01*
X4034467Y-14504460D02*
X4005896Y-14513984D01*
X4005896Y-14513984D02*
X3958277Y-14513984D01*
X4158277Y-14513984D02*
X4158277Y-14380650D01*
X4158277Y-14418746D02*
X4167801Y-14399698D01*
X4167801Y-14399698D02*
X4177324Y-14390174D01*
X4177324Y-14390174D02*
X4196372Y-14380650D01*
X4196372Y-14380650D02*
X4215420Y-14380650D01*
X4282086Y-14513984D02*
X4282086Y-14380650D01*
X4282086Y-14313984D02*
X4272563Y-14323508D01*
X4272563Y-14323508D02*
X4282086Y-14333031D01*
X4282086Y-14333031D02*
X4291610Y-14323508D01*
X4291610Y-14323508D02*
X4282086Y-14313984D01*
X4282086Y-14313984D02*
X4282086Y-14333031D01*
X4405896Y-14513984D02*
X4386848Y-14504460D01*
X4386848Y-14504460D02*
X4377324Y-14485412D01*
X4377324Y-14485412D02*
X4377324Y-14313984D01*
X4510658Y-14513984D02*
X4491610Y-14504460D01*
X4491610Y-14504460D02*
X4482086Y-14485412D01*
X4482086Y-14485412D02*
X4482086Y-14313984D01*
X4739229Y-14513984D02*
X4739229Y-14313984D01*
X4739229Y-14313984D02*
X4805896Y-14456841D01*
X4805896Y-14456841D02*
X4872563Y-14313984D01*
X4872563Y-14313984D02*
X4872563Y-14513984D01*
X5053515Y-14513984D02*
X5053515Y-14409222D01*
X5053515Y-14409222D02*
X5043991Y-14390174D01*
X5043991Y-14390174D02*
X5024944Y-14380650D01*
X5024944Y-14380650D02*
X4986848Y-14380650D01*
X4986848Y-14380650D02*
X4967801Y-14390174D01*
X5053515Y-14504460D02*
X5034467Y-14513984D01*
X5034467Y-14513984D02*
X4986848Y-14513984D01*
X4986848Y-14513984D02*
X4967801Y-14504460D01*
X4967801Y-14504460D02*
X4958277Y-14485412D01*
X4958277Y-14485412D02*
X4958277Y-14466365D01*
X4958277Y-14466365D02*
X4967801Y-14447317D01*
X4967801Y-14447317D02*
X4986848Y-14437793D01*
X4986848Y-14437793D02*
X5034467Y-14437793D01*
X5034467Y-14437793D02*
X5053515Y-14428269D01*
X5148753Y-14380650D02*
X5148753Y-14580650D01*
X5148753Y-14390174D02*
X5167801Y-14380650D01*
X5167801Y-14380650D02*
X5205896Y-14380650D01*
X5205896Y-14380650D02*
X5224944Y-14390174D01*
X5224944Y-14390174D02*
X5234467Y-14399698D01*
X5234467Y-14399698D02*
X5243991Y-14418746D01*
X5243991Y-14418746D02*
X5243991Y-14475888D01*
X5243991Y-14475888D02*
X5234467Y-14494936D01*
X5234467Y-14494936D02*
X5224944Y-14504460D01*
X5224944Y-14504460D02*
X5205896Y-14513984D01*
X5205896Y-14513984D02*
X5167801Y-14513984D01*
X5167801Y-14513984D02*
X5148753Y-14504460D01*
X5329705Y-14494936D02*
X5339229Y-14504460D01*
X5339229Y-14504460D02*
X5329705Y-14513984D01*
X5329705Y-14513984D02*
X5320182Y-14504460D01*
X5320182Y-14504460D02*
X5329705Y-14494936D01*
X5329705Y-14494936D02*
X5329705Y-14513984D01*
X5329705Y-14390174D02*
X5339229Y-14399698D01*
X5339229Y-14399698D02*
X5329705Y-14409222D01*
X5329705Y-14409222D02*
X5320182Y-14399698D01*
X5320182Y-14399698D02*
X5329705Y-14390174D01*
X5329705Y-14390174D02*
X5329705Y-14409222D01*
D12*
X3667500Y-14827500D02*
X3697500Y-14857500D01*
X3697500Y-14827500D02*
X3667500Y-14857500D01*
D11*
X3996372Y-14733984D02*
X4015420Y-14733984D01*
X4015420Y-14733984D02*
X4034467Y-14743508D01*
X4034467Y-14743508D02*
X4043991Y-14753031D01*
X4043991Y-14753031D02*
X4053515Y-14772079D01*
X4053515Y-14772079D02*
X4063039Y-14810174D01*
X4063039Y-14810174D02*
X4063039Y-14857793D01*
X4063039Y-14857793D02*
X4053515Y-14895888D01*
X4053515Y-14895888D02*
X4043991Y-14914936D01*
X4043991Y-14914936D02*
X4034467Y-14924460D01*
X4034467Y-14924460D02*
X4015420Y-14933984D01*
X4015420Y-14933984D02*
X3996372Y-14933984D01*
X3996372Y-14933984D02*
X3977324Y-14924460D01*
X3977324Y-14924460D02*
X3967801Y-14914936D01*
X3967801Y-14914936D02*
X3958277Y-14895888D01*
X3958277Y-14895888D02*
X3948753Y-14857793D01*
X3948753Y-14857793D02*
X3948753Y-14810174D01*
X3948753Y-14810174D02*
X3958277Y-14772079D01*
X3958277Y-14772079D02*
X3967801Y-14753031D01*
X3967801Y-14753031D02*
X3977324Y-14743508D01*
X3977324Y-14743508D02*
X3996372Y-14733984D01*
X4148753Y-14914936D02*
X4158277Y-14924460D01*
X4158277Y-14924460D02*
X4148753Y-14933984D01*
X4148753Y-14933984D02*
X4139229Y-14924460D01*
X4139229Y-14924460D02*
X4148753Y-14914936D01*
X4148753Y-14914936D02*
X4148753Y-14933984D01*
X4224944Y-14733984D02*
X4348753Y-14733984D01*
X4348753Y-14733984D02*
X4282086Y-14810174D01*
X4282086Y-14810174D02*
X4310658Y-14810174D01*
X4310658Y-14810174D02*
X4329705Y-14819698D01*
X4329705Y-14819698D02*
X4339229Y-14829222D01*
X4339229Y-14829222D02*
X4348753Y-14848269D01*
X4348753Y-14848269D02*
X4348753Y-14895888D01*
X4348753Y-14895888D02*
X4339229Y-14914936D01*
X4339229Y-14914936D02*
X4329705Y-14924460D01*
X4329705Y-14924460D02*
X4310658Y-14933984D01*
X4310658Y-14933984D02*
X4253515Y-14933984D01*
X4253515Y-14933984D02*
X4234467Y-14924460D01*
X4234467Y-14924460D02*
X4224944Y-14914936D01*
X4472563Y-14733984D02*
X4491610Y-14733984D01*
X4491610Y-14733984D02*
X4510658Y-14743508D01*
X4510658Y-14743508D02*
X4520182Y-14753031D01*
X4520182Y-14753031D02*
X4529705Y-14772079D01*
X4529705Y-14772079D02*
X4539229Y-14810174D01*
X4539229Y-14810174D02*
X4539229Y-14857793D01*
X4539229Y-14857793D02*
X4529705Y-14895888D01*
X4529705Y-14895888D02*
X4520182Y-14914936D01*
X4520182Y-14914936D02*
X4510658Y-14924460D01*
X4510658Y-14924460D02*
X4491610Y-14933984D01*
X4491610Y-14933984D02*
X4472563Y-14933984D01*
X4472563Y-14933984D02*
X4453515Y-14924460D01*
X4453515Y-14924460D02*
X4443991Y-14914936D01*
X4443991Y-14914936D02*
X4434467Y-14895888D01*
X4434467Y-14895888D02*
X4424944Y-14857793D01*
X4424944Y-14857793D02*
X4424944Y-14810174D01*
X4424944Y-14810174D02*
X4434467Y-14772079D01*
X4434467Y-14772079D02*
X4443991Y-14753031D01*
X4443991Y-14753031D02*
X4453515Y-14743508D01*
X4453515Y-14743508D02*
X4472563Y-14733984D01*
X4663039Y-14733984D02*
X4682086Y-14733984D01*
X4682086Y-14733984D02*
X4701134Y-14743508D01*
X4701134Y-14743508D02*
X4710658Y-14753031D01*
X4710658Y-14753031D02*
X4720182Y-14772079D01*
X4720182Y-14772079D02*
X4729705Y-14810174D01*
X4729705Y-14810174D02*
X4729705Y-14857793D01*
X4729705Y-14857793D02*
X4720182Y-14895888D01*
X4720182Y-14895888D02*
X4710658Y-14914936D01*
X4710658Y-14914936D02*
X4701134Y-14924460D01*
X4701134Y-14924460D02*
X4682086Y-14933984D01*
X4682086Y-14933984D02*
X4663039Y-14933984D01*
X4663039Y-14933984D02*
X4643991Y-14924460D01*
X4643991Y-14924460D02*
X4634467Y-14914936D01*
X4634467Y-14914936D02*
X4624944Y-14895888D01*
X4624944Y-14895888D02*
X4615420Y-14857793D01*
X4615420Y-14857793D02*
X4615420Y-14810174D01*
X4615420Y-14810174D02*
X4624944Y-14772079D01*
X4624944Y-14772079D02*
X4634467Y-14753031D01*
X4634467Y-14753031D02*
X4643991Y-14743508D01*
X4643991Y-14743508D02*
X4663039Y-14733984D01*
X4815420Y-14933984D02*
X4815420Y-14800650D01*
X4815420Y-14819698D02*
X4824944Y-14810174D01*
X4824944Y-14810174D02*
X4843991Y-14800650D01*
X4843991Y-14800650D02*
X4872563Y-14800650D01*
X4872563Y-14800650D02*
X4891610Y-14810174D01*
X4891610Y-14810174D02*
X4901134Y-14829222D01*
X4901134Y-14829222D02*
X4901134Y-14933984D01*
X4901134Y-14829222D02*
X4910658Y-14810174D01*
X4910658Y-14810174D02*
X4929705Y-14800650D01*
X4929705Y-14800650D02*
X4958277Y-14800650D01*
X4958277Y-14800650D02*
X4977325Y-14810174D01*
X4977325Y-14810174D02*
X4986848Y-14829222D01*
X4986848Y-14829222D02*
X4986848Y-14933984D01*
X5082086Y-14933984D02*
X5082086Y-14800650D01*
X5082086Y-14819698D02*
X5091610Y-14810174D01*
X5091610Y-14810174D02*
X5110658Y-14800650D01*
X5110658Y-14800650D02*
X5139229Y-14800650D01*
X5139229Y-14800650D02*
X5158277Y-14810174D01*
X5158277Y-14810174D02*
X5167801Y-14829222D01*
X5167801Y-14829222D02*
X5167801Y-14933984D01*
X5167801Y-14829222D02*
X5177325Y-14810174D01*
X5177325Y-14810174D02*
X5196372Y-14800650D01*
X5196372Y-14800650D02*
X5224944Y-14800650D01*
X5224944Y-14800650D02*
X5243991Y-14810174D01*
X5243991Y-14810174D02*
X5253515Y-14829222D01*
X5253515Y-14829222D02*
X5253515Y-14933984D01*
X5643991Y-14724460D02*
X5472563Y-14981603D01*
X5901134Y-14733984D02*
X5920182Y-14733984D01*
X5920182Y-14733984D02*
X5939229Y-14743508D01*
X5939229Y-14743508D02*
X5948753Y-14753031D01*
X5948753Y-14753031D02*
X5958277Y-14772079D01*
X5958277Y-14772079D02*
X5967801Y-14810174D01*
X5967801Y-14810174D02*
X5967801Y-14857793D01*
X5967801Y-14857793D02*
X5958277Y-14895888D01*
X5958277Y-14895888D02*
X5948753Y-14914936D01*
X5948753Y-14914936D02*
X5939229Y-14924460D01*
X5939229Y-14924460D02*
X5920182Y-14933984D01*
X5920182Y-14933984D02*
X5901134Y-14933984D01*
X5901134Y-14933984D02*
X5882086Y-14924460D01*
X5882086Y-14924460D02*
X5872563Y-14914936D01*
X5872563Y-14914936D02*
X5863039Y-14895888D01*
X5863039Y-14895888D02*
X5853515Y-14857793D01*
X5853515Y-14857793D02*
X5853515Y-14810174D01*
X5853515Y-14810174D02*
X5863039Y-14772079D01*
X5863039Y-14772079D02*
X5872563Y-14753031D01*
X5872563Y-14753031D02*
X5882086Y-14743508D01*
X5882086Y-14743508D02*
X5901134Y-14733984D01*
X6053515Y-14914936D02*
X6063039Y-14924460D01*
X6063039Y-14924460D02*
X6053515Y-14933984D01*
X6053515Y-14933984D02*
X6043991Y-14924460D01*
X6043991Y-14924460D02*
X6053515Y-14914936D01*
X6053515Y-14914936D02*
X6053515Y-14933984D01*
X6186848Y-14733984D02*
X6205896Y-14733984D01*
X6205896Y-14733984D02*
X6224944Y-14743508D01*
X6224944Y-14743508D02*
X6234467Y-14753031D01*
X6234467Y-14753031D02*
X6243991Y-14772079D01*
X6243991Y-14772079D02*
X6253515Y-14810174D01*
X6253515Y-14810174D02*
X6253515Y-14857793D01*
X6253515Y-14857793D02*
X6243991Y-14895888D01*
X6243991Y-14895888D02*
X6234467Y-14914936D01*
X6234467Y-14914936D02*
X6224944Y-14924460D01*
X6224944Y-14924460D02*
X6205896Y-14933984D01*
X6205896Y-14933984D02*
X6186848Y-14933984D01*
X6186848Y-14933984D02*
X6167801Y-14924460D01*
X6167801Y-14924460D02*
X6158277Y-14914936D01*
X6158277Y-14914936D02*
X6148753Y-14895888D01*
X6148753Y-14895888D02*
X6139229Y-14857793D01*
X6139229Y-14857793D02*
X6139229Y-14810174D01*
X6139229Y-14810174D02*
X6148753Y-14772079D01*
X6148753Y-14772079D02*
X6158277Y-14753031D01*
X6158277Y-14753031D02*
X6167801Y-14743508D01*
X6167801Y-14743508D02*
X6186848Y-14733984D01*
X6443991Y-14933984D02*
X6329706Y-14933984D01*
X6386848Y-14933984D02*
X6386848Y-14733984D01*
X6386848Y-14733984D02*
X6367801Y-14762555D01*
X6367801Y-14762555D02*
X6348753Y-14781603D01*
X6348753Y-14781603D02*
X6329706Y-14791127D01*
X6634467Y-14933984D02*
X6520182Y-14933984D01*
X6577325Y-14933984D02*
X6577325Y-14733984D01*
X6577325Y-14733984D02*
X6558277Y-14762555D01*
X6558277Y-14762555D02*
X6539229Y-14781603D01*
X6539229Y-14781603D02*
X6520182Y-14791127D01*
X6748753Y-14819698D02*
X6729706Y-14810174D01*
X6729706Y-14810174D02*
X6720182Y-14800650D01*
X6720182Y-14800650D02*
X6710658Y-14781603D01*
X6710658Y-14781603D02*
X6710658Y-14772079D01*
X6710658Y-14772079D02*
X6720182Y-14753031D01*
X6720182Y-14753031D02*
X6729706Y-14743508D01*
X6729706Y-14743508D02*
X6748753Y-14733984D01*
X6748753Y-14733984D02*
X6786848Y-14733984D01*
X6786848Y-14733984D02*
X6805896Y-14743508D01*
X6805896Y-14743508D02*
X6815420Y-14753031D01*
X6815420Y-14753031D02*
X6824944Y-14772079D01*
X6824944Y-14772079D02*
X6824944Y-14781603D01*
X6824944Y-14781603D02*
X6815420Y-14800650D01*
X6815420Y-14800650D02*
X6805896Y-14810174D01*
X6805896Y-14810174D02*
X6786848Y-14819698D01*
X6786848Y-14819698D02*
X6748753Y-14819698D01*
X6748753Y-14819698D02*
X6729706Y-14829222D01*
X6729706Y-14829222D02*
X6720182Y-14838746D01*
X6720182Y-14838746D02*
X6710658Y-14857793D01*
X6710658Y-14857793D02*
X6710658Y-14895888D01*
X6710658Y-14895888D02*
X6720182Y-14914936D01*
X6720182Y-14914936D02*
X6729706Y-14924460D01*
X6729706Y-14924460D02*
X6748753Y-14933984D01*
X6748753Y-14933984D02*
X6786848Y-14933984D01*
X6786848Y-14933984D02*
X6805896Y-14924460D01*
X6805896Y-14924460D02*
X6815420Y-14914936D01*
X6815420Y-14914936D02*
X6824944Y-14895888D01*
X6824944Y-14895888D02*
X6824944Y-14857793D01*
X6824944Y-14857793D02*
X6815420Y-14838746D01*
X6815420Y-14838746D02*
X6805896Y-14829222D01*
X6805896Y-14829222D02*
X6786848Y-14819698D01*
X6901134Y-14733984D02*
X6901134Y-14772079D01*
X6977325Y-14733984D02*
X6977325Y-14772079D01*
X7272563Y-15010174D02*
X7263039Y-15000650D01*
X7263039Y-15000650D02*
X7243991Y-14972079D01*
X7243991Y-14972079D02*
X7234468Y-14953031D01*
X7234468Y-14953031D02*
X7224944Y-14924460D01*
X7224944Y-14924460D02*
X7215420Y-14876841D01*
X7215420Y-14876841D02*
X7215420Y-14838746D01*
X7215420Y-14838746D02*
X7224944Y-14791127D01*
X7224944Y-14791127D02*
X7234468Y-14762555D01*
X7234468Y-14762555D02*
X7243991Y-14743508D01*
X7243991Y-14743508D02*
X7263039Y-14714936D01*
X7263039Y-14714936D02*
X7272563Y-14705412D01*
X7339229Y-14753031D02*
X7348753Y-14743508D01*
X7348753Y-14743508D02*
X7367801Y-14733984D01*
X7367801Y-14733984D02*
X7415420Y-14733984D01*
X7415420Y-14733984D02*
X7434468Y-14743508D01*
X7434468Y-14743508D02*
X7443991Y-14753031D01*
X7443991Y-14753031D02*
X7453515Y-14772079D01*
X7453515Y-14772079D02*
X7453515Y-14791127D01*
X7453515Y-14791127D02*
X7443991Y-14819698D01*
X7443991Y-14819698D02*
X7329706Y-14933984D01*
X7329706Y-14933984D02*
X7453515Y-14933984D01*
X7643991Y-14933984D02*
X7529706Y-14933984D01*
X7586848Y-14933984D02*
X7586848Y-14733984D01*
X7586848Y-14733984D02*
X7567801Y-14762555D01*
X7567801Y-14762555D02*
X7548753Y-14781603D01*
X7548753Y-14781603D02*
X7529706Y-14791127D01*
X7767801Y-14733984D02*
X7786849Y-14733984D01*
X7786849Y-14733984D02*
X7805896Y-14743508D01*
X7805896Y-14743508D02*
X7815420Y-14753031D01*
X7815420Y-14753031D02*
X7824944Y-14772079D01*
X7824944Y-14772079D02*
X7834468Y-14810174D01*
X7834468Y-14810174D02*
X7834468Y-14857793D01*
X7834468Y-14857793D02*
X7824944Y-14895888D01*
X7824944Y-14895888D02*
X7815420Y-14914936D01*
X7815420Y-14914936D02*
X7805896Y-14924460D01*
X7805896Y-14924460D02*
X7786849Y-14933984D01*
X7786849Y-14933984D02*
X7767801Y-14933984D01*
X7767801Y-14933984D02*
X7748753Y-14924460D01*
X7748753Y-14924460D02*
X7739229Y-14914936D01*
X7739229Y-14914936D02*
X7729706Y-14895888D01*
X7729706Y-14895888D02*
X7720182Y-14857793D01*
X7720182Y-14857793D02*
X7720182Y-14810174D01*
X7720182Y-14810174D02*
X7729706Y-14772079D01*
X7729706Y-14772079D02*
X7739229Y-14753031D01*
X7739229Y-14753031D02*
X7748753Y-14743508D01*
X7748753Y-14743508D02*
X7767801Y-14733984D01*
X8072563Y-14933984D02*
X8072563Y-14733984D01*
X8158277Y-14933984D02*
X8158277Y-14829222D01*
X8158277Y-14829222D02*
X8148753Y-14810174D01*
X8148753Y-14810174D02*
X8129706Y-14800650D01*
X8129706Y-14800650D02*
X8101134Y-14800650D01*
X8101134Y-14800650D02*
X8082087Y-14810174D01*
X8082087Y-14810174D02*
X8072563Y-14819698D01*
X8282087Y-14933984D02*
X8263039Y-14924460D01*
X8263039Y-14924460D02*
X8253515Y-14914936D01*
X8253515Y-14914936D02*
X8243991Y-14895888D01*
X8243991Y-14895888D02*
X8243991Y-14838746D01*
X8243991Y-14838746D02*
X8253515Y-14819698D01*
X8253515Y-14819698D02*
X8263039Y-14810174D01*
X8263039Y-14810174D02*
X8282087Y-14800650D01*
X8282087Y-14800650D02*
X8310658Y-14800650D01*
X8310658Y-14800650D02*
X8329706Y-14810174D01*
X8329706Y-14810174D02*
X8339230Y-14819698D01*
X8339230Y-14819698D02*
X8348753Y-14838746D01*
X8348753Y-14838746D02*
X8348753Y-14895888D01*
X8348753Y-14895888D02*
X8339230Y-14914936D01*
X8339230Y-14914936D02*
X8329706Y-14924460D01*
X8329706Y-14924460D02*
X8310658Y-14933984D01*
X8310658Y-14933984D02*
X8282087Y-14933984D01*
X8463039Y-14933984D02*
X8443992Y-14924460D01*
X8443992Y-14924460D02*
X8434468Y-14905412D01*
X8434468Y-14905412D02*
X8434468Y-14733984D01*
X8615420Y-14924460D02*
X8596373Y-14933984D01*
X8596373Y-14933984D02*
X8558277Y-14933984D01*
X8558277Y-14933984D02*
X8539230Y-14924460D01*
X8539230Y-14924460D02*
X8529706Y-14905412D01*
X8529706Y-14905412D02*
X8529706Y-14829222D01*
X8529706Y-14829222D02*
X8539230Y-14810174D01*
X8539230Y-14810174D02*
X8558277Y-14800650D01*
X8558277Y-14800650D02*
X8596373Y-14800650D01*
X8596373Y-14800650D02*
X8615420Y-14810174D01*
X8615420Y-14810174D02*
X8624944Y-14829222D01*
X8624944Y-14829222D02*
X8624944Y-14848269D01*
X8624944Y-14848269D02*
X8529706Y-14867317D01*
X8701134Y-14924460D02*
X8720182Y-14933984D01*
X8720182Y-14933984D02*
X8758277Y-14933984D01*
X8758277Y-14933984D02*
X8777325Y-14924460D01*
X8777325Y-14924460D02*
X8786849Y-14905412D01*
X8786849Y-14905412D02*
X8786849Y-14895888D01*
X8786849Y-14895888D02*
X8777325Y-14876841D01*
X8777325Y-14876841D02*
X8758277Y-14867317D01*
X8758277Y-14867317D02*
X8729706Y-14867317D01*
X8729706Y-14867317D02*
X8710658Y-14857793D01*
X8710658Y-14857793D02*
X8701134Y-14838746D01*
X8701134Y-14838746D02*
X8701134Y-14829222D01*
X8701134Y-14829222D02*
X8710658Y-14810174D01*
X8710658Y-14810174D02*
X8729706Y-14800650D01*
X8729706Y-14800650D02*
X8758277Y-14800650D01*
X8758277Y-14800650D02*
X8777325Y-14810174D01*
X8853515Y-15010174D02*
X8863039Y-15000650D01*
X8863039Y-15000650D02*
X8882087Y-14972079D01*
X8882087Y-14972079D02*
X8891611Y-14953031D01*
X8891611Y-14953031D02*
X8901134Y-14924460D01*
X8901134Y-14924460D02*
X8910658Y-14876841D01*
X8910658Y-14876841D02*
X8910658Y-14838746D01*
X8910658Y-14838746D02*
X8901134Y-14791127D01*
X8901134Y-14791127D02*
X8891611Y-14762555D01*
X8891611Y-14762555D02*
X8882087Y-14743508D01*
X8882087Y-14743508D02*
X8863039Y-14714936D01*
X8863039Y-14714936D02*
X8853515Y-14705412D01*
D12*
X3697500Y-15106500D02*
G75*
G02*
X3647500Y-15106500I-25000J0D01*
G01*
X3647500Y-15106500D02*
G75*
G02*
X3697500Y-15106500I25000J0D01*
G01*
D11*
X3996372Y-14997984D02*
X4015420Y-14997984D01*
X4015420Y-14997984D02*
X4034467Y-15007508D01*
X4034467Y-15007508D02*
X4043991Y-15017031D01*
X4043991Y-15017031D02*
X4053515Y-15036079D01*
X4053515Y-15036079D02*
X4063039Y-15074174D01*
X4063039Y-15074174D02*
X4063039Y-15121793D01*
X4063039Y-15121793D02*
X4053515Y-15159888D01*
X4053515Y-15159888D02*
X4043991Y-15178936D01*
X4043991Y-15178936D02*
X4034467Y-15188460D01*
X4034467Y-15188460D02*
X4015420Y-15197984D01*
X4015420Y-15197984D02*
X3996372Y-15197984D01*
X3996372Y-15197984D02*
X3977324Y-15188460D01*
X3977324Y-15188460D02*
X3967801Y-15178936D01*
X3967801Y-15178936D02*
X3958277Y-15159888D01*
X3958277Y-15159888D02*
X3948753Y-15121793D01*
X3948753Y-15121793D02*
X3948753Y-15074174D01*
X3948753Y-15074174D02*
X3958277Y-15036079D01*
X3958277Y-15036079D02*
X3967801Y-15017031D01*
X3967801Y-15017031D02*
X3977324Y-15007508D01*
X3977324Y-15007508D02*
X3996372Y-14997984D01*
X4148753Y-15178936D02*
X4158277Y-15188460D01*
X4158277Y-15188460D02*
X4148753Y-15197984D01*
X4148753Y-15197984D02*
X4139229Y-15188460D01*
X4139229Y-15188460D02*
X4148753Y-15178936D01*
X4148753Y-15178936D02*
X4148753Y-15197984D01*
X4339229Y-14997984D02*
X4243991Y-14997984D01*
X4243991Y-14997984D02*
X4234467Y-15093222D01*
X4234467Y-15093222D02*
X4243991Y-15083698D01*
X4243991Y-15083698D02*
X4263039Y-15074174D01*
X4263039Y-15074174D02*
X4310658Y-15074174D01*
X4310658Y-15074174D02*
X4329705Y-15083698D01*
X4329705Y-15083698D02*
X4339229Y-15093222D01*
X4339229Y-15093222D02*
X4348753Y-15112269D01*
X4348753Y-15112269D02*
X4348753Y-15159888D01*
X4348753Y-15159888D02*
X4339229Y-15178936D01*
X4339229Y-15178936D02*
X4329705Y-15188460D01*
X4329705Y-15188460D02*
X4310658Y-15197984D01*
X4310658Y-15197984D02*
X4263039Y-15197984D01*
X4263039Y-15197984D02*
X4243991Y-15188460D01*
X4243991Y-15188460D02*
X4234467Y-15178936D01*
X4472563Y-14997984D02*
X4491610Y-14997984D01*
X4491610Y-14997984D02*
X4510658Y-15007508D01*
X4510658Y-15007508D02*
X4520182Y-15017031D01*
X4520182Y-15017031D02*
X4529705Y-15036079D01*
X4529705Y-15036079D02*
X4539229Y-15074174D01*
X4539229Y-15074174D02*
X4539229Y-15121793D01*
X4539229Y-15121793D02*
X4529705Y-15159888D01*
X4529705Y-15159888D02*
X4520182Y-15178936D01*
X4520182Y-15178936D02*
X4510658Y-15188460D01*
X4510658Y-15188460D02*
X4491610Y-15197984D01*
X4491610Y-15197984D02*
X4472563Y-15197984D01*
X4472563Y-15197984D02*
X4453515Y-15188460D01*
X4453515Y-15188460D02*
X4443991Y-15178936D01*
X4443991Y-15178936D02*
X4434467Y-15159888D01*
X4434467Y-15159888D02*
X4424944Y-15121793D01*
X4424944Y-15121793D02*
X4424944Y-15074174D01*
X4424944Y-15074174D02*
X4434467Y-15036079D01*
X4434467Y-15036079D02*
X4443991Y-15017031D01*
X4443991Y-15017031D02*
X4453515Y-15007508D01*
X4453515Y-15007508D02*
X4472563Y-14997984D01*
X4663039Y-14997984D02*
X4682086Y-14997984D01*
X4682086Y-14997984D02*
X4701134Y-15007508D01*
X4701134Y-15007508D02*
X4710658Y-15017031D01*
X4710658Y-15017031D02*
X4720182Y-15036079D01*
X4720182Y-15036079D02*
X4729705Y-15074174D01*
X4729705Y-15074174D02*
X4729705Y-15121793D01*
X4729705Y-15121793D02*
X4720182Y-15159888D01*
X4720182Y-15159888D02*
X4710658Y-15178936D01*
X4710658Y-15178936D02*
X4701134Y-15188460D01*
X4701134Y-15188460D02*
X4682086Y-15197984D01*
X4682086Y-15197984D02*
X4663039Y-15197984D01*
X4663039Y-15197984D02*
X4643991Y-15188460D01*
X4643991Y-15188460D02*
X4634467Y-15178936D01*
X4634467Y-15178936D02*
X4624944Y-15159888D01*
X4624944Y-15159888D02*
X4615420Y-15121793D01*
X4615420Y-15121793D02*
X4615420Y-15074174D01*
X4615420Y-15074174D02*
X4624944Y-15036079D01*
X4624944Y-15036079D02*
X4634467Y-15017031D01*
X4634467Y-15017031D02*
X4643991Y-15007508D01*
X4643991Y-15007508D02*
X4663039Y-14997984D01*
X4815420Y-15197984D02*
X4815420Y-15064650D01*
X4815420Y-15083698D02*
X4824944Y-15074174D01*
X4824944Y-15074174D02*
X4843991Y-15064650D01*
X4843991Y-15064650D02*
X4872563Y-15064650D01*
X4872563Y-15064650D02*
X4891610Y-15074174D01*
X4891610Y-15074174D02*
X4901134Y-15093222D01*
X4901134Y-15093222D02*
X4901134Y-15197984D01*
X4901134Y-15093222D02*
X4910658Y-15074174D01*
X4910658Y-15074174D02*
X4929705Y-15064650D01*
X4929705Y-15064650D02*
X4958277Y-15064650D01*
X4958277Y-15064650D02*
X4977325Y-15074174D01*
X4977325Y-15074174D02*
X4986848Y-15093222D01*
X4986848Y-15093222D02*
X4986848Y-15197984D01*
X5082086Y-15197984D02*
X5082086Y-15064650D01*
X5082086Y-15083698D02*
X5091610Y-15074174D01*
X5091610Y-15074174D02*
X5110658Y-15064650D01*
X5110658Y-15064650D02*
X5139229Y-15064650D01*
X5139229Y-15064650D02*
X5158277Y-15074174D01*
X5158277Y-15074174D02*
X5167801Y-15093222D01*
X5167801Y-15093222D02*
X5167801Y-15197984D01*
X5167801Y-15093222D02*
X5177325Y-15074174D01*
X5177325Y-15074174D02*
X5196372Y-15064650D01*
X5196372Y-15064650D02*
X5224944Y-15064650D01*
X5224944Y-15064650D02*
X5243991Y-15074174D01*
X5243991Y-15074174D02*
X5253515Y-15093222D01*
X5253515Y-15093222D02*
X5253515Y-15197984D01*
X5643991Y-14988460D02*
X5472563Y-15245603D01*
X5901134Y-14997984D02*
X5920182Y-14997984D01*
X5920182Y-14997984D02*
X5939229Y-15007508D01*
X5939229Y-15007508D02*
X5948753Y-15017031D01*
X5948753Y-15017031D02*
X5958277Y-15036079D01*
X5958277Y-15036079D02*
X5967801Y-15074174D01*
X5967801Y-15074174D02*
X5967801Y-15121793D01*
X5967801Y-15121793D02*
X5958277Y-15159888D01*
X5958277Y-15159888D02*
X5948753Y-15178936D01*
X5948753Y-15178936D02*
X5939229Y-15188460D01*
X5939229Y-15188460D02*
X5920182Y-15197984D01*
X5920182Y-15197984D02*
X5901134Y-15197984D01*
X5901134Y-15197984D02*
X5882086Y-15188460D01*
X5882086Y-15188460D02*
X5872563Y-15178936D01*
X5872563Y-15178936D02*
X5863039Y-15159888D01*
X5863039Y-15159888D02*
X5853515Y-15121793D01*
X5853515Y-15121793D02*
X5853515Y-15074174D01*
X5853515Y-15074174D02*
X5863039Y-15036079D01*
X5863039Y-15036079D02*
X5872563Y-15017031D01*
X5872563Y-15017031D02*
X5882086Y-15007508D01*
X5882086Y-15007508D02*
X5901134Y-14997984D01*
X6053515Y-15178936D02*
X6063039Y-15188460D01*
X6063039Y-15188460D02*
X6053515Y-15197984D01*
X6053515Y-15197984D02*
X6043991Y-15188460D01*
X6043991Y-15188460D02*
X6053515Y-15178936D01*
X6053515Y-15178936D02*
X6053515Y-15197984D01*
X6186848Y-14997984D02*
X6205896Y-14997984D01*
X6205896Y-14997984D02*
X6224944Y-15007508D01*
X6224944Y-15007508D02*
X6234467Y-15017031D01*
X6234467Y-15017031D02*
X6243991Y-15036079D01*
X6243991Y-15036079D02*
X6253515Y-15074174D01*
X6253515Y-15074174D02*
X6253515Y-15121793D01*
X6253515Y-15121793D02*
X6243991Y-15159888D01*
X6243991Y-15159888D02*
X6234467Y-15178936D01*
X6234467Y-15178936D02*
X6224944Y-15188460D01*
X6224944Y-15188460D02*
X6205896Y-15197984D01*
X6205896Y-15197984D02*
X6186848Y-15197984D01*
X6186848Y-15197984D02*
X6167801Y-15188460D01*
X6167801Y-15188460D02*
X6158277Y-15178936D01*
X6158277Y-15178936D02*
X6148753Y-15159888D01*
X6148753Y-15159888D02*
X6139229Y-15121793D01*
X6139229Y-15121793D02*
X6139229Y-15074174D01*
X6139229Y-15074174D02*
X6148753Y-15036079D01*
X6148753Y-15036079D02*
X6158277Y-15017031D01*
X6158277Y-15017031D02*
X6167801Y-15007508D01*
X6167801Y-15007508D02*
X6186848Y-14997984D01*
X6443991Y-15197984D02*
X6329706Y-15197984D01*
X6386848Y-15197984D02*
X6386848Y-14997984D01*
X6386848Y-14997984D02*
X6367801Y-15026555D01*
X6367801Y-15026555D02*
X6348753Y-15045603D01*
X6348753Y-15045603D02*
X6329706Y-15055127D01*
X6539229Y-15197984D02*
X6577325Y-15197984D01*
X6577325Y-15197984D02*
X6596372Y-15188460D01*
X6596372Y-15188460D02*
X6605896Y-15178936D01*
X6605896Y-15178936D02*
X6624944Y-15150365D01*
X6624944Y-15150365D02*
X6634467Y-15112269D01*
X6634467Y-15112269D02*
X6634467Y-15036079D01*
X6634467Y-15036079D02*
X6624944Y-15017031D01*
X6624944Y-15017031D02*
X6615420Y-15007508D01*
X6615420Y-15007508D02*
X6596372Y-14997984D01*
X6596372Y-14997984D02*
X6558277Y-14997984D01*
X6558277Y-14997984D02*
X6539229Y-15007508D01*
X6539229Y-15007508D02*
X6529706Y-15017031D01*
X6529706Y-15017031D02*
X6520182Y-15036079D01*
X6520182Y-15036079D02*
X6520182Y-15083698D01*
X6520182Y-15083698D02*
X6529706Y-15102746D01*
X6529706Y-15102746D02*
X6539229Y-15112269D01*
X6539229Y-15112269D02*
X6558277Y-15121793D01*
X6558277Y-15121793D02*
X6596372Y-15121793D01*
X6596372Y-15121793D02*
X6615420Y-15112269D01*
X6615420Y-15112269D02*
X6624944Y-15102746D01*
X6624944Y-15102746D02*
X6634467Y-15083698D01*
X6701134Y-14997984D02*
X6834467Y-14997984D01*
X6834467Y-14997984D02*
X6748753Y-15197984D01*
X6901134Y-14997984D02*
X6901134Y-15036079D01*
X6977325Y-14997984D02*
X6977325Y-15036079D01*
X7272563Y-15274174D02*
X7263039Y-15264650D01*
X7263039Y-15264650D02*
X7243991Y-15236079D01*
X7243991Y-15236079D02*
X7234468Y-15217031D01*
X7234468Y-15217031D02*
X7224944Y-15188460D01*
X7224944Y-15188460D02*
X7215420Y-15140841D01*
X7215420Y-15140841D02*
X7215420Y-15102746D01*
X7215420Y-15102746D02*
X7224944Y-15055127D01*
X7224944Y-15055127D02*
X7234468Y-15026555D01*
X7234468Y-15026555D02*
X7243991Y-15007508D01*
X7243991Y-15007508D02*
X7263039Y-14978936D01*
X7263039Y-14978936D02*
X7272563Y-14969412D01*
X7329706Y-14997984D02*
X7453515Y-14997984D01*
X7453515Y-14997984D02*
X7386848Y-15074174D01*
X7386848Y-15074174D02*
X7415420Y-15074174D01*
X7415420Y-15074174D02*
X7434468Y-15083698D01*
X7434468Y-15083698D02*
X7443991Y-15093222D01*
X7443991Y-15093222D02*
X7453515Y-15112269D01*
X7453515Y-15112269D02*
X7453515Y-15159888D01*
X7453515Y-15159888D02*
X7443991Y-15178936D01*
X7443991Y-15178936D02*
X7434468Y-15188460D01*
X7434468Y-15188460D02*
X7415420Y-15197984D01*
X7415420Y-15197984D02*
X7358277Y-15197984D01*
X7358277Y-15197984D02*
X7339229Y-15188460D01*
X7339229Y-15188460D02*
X7329706Y-15178936D01*
X7691610Y-15197984D02*
X7691610Y-14997984D01*
X7777325Y-15197984D02*
X7777325Y-15093222D01*
X7777325Y-15093222D02*
X7767801Y-15074174D01*
X7767801Y-15074174D02*
X7748753Y-15064650D01*
X7748753Y-15064650D02*
X7720182Y-15064650D01*
X7720182Y-15064650D02*
X7701134Y-15074174D01*
X7701134Y-15074174D02*
X7691610Y-15083698D01*
X7901134Y-15197984D02*
X7882087Y-15188460D01*
X7882087Y-15188460D02*
X7872563Y-15178936D01*
X7872563Y-15178936D02*
X7863039Y-15159888D01*
X7863039Y-15159888D02*
X7863039Y-15102746D01*
X7863039Y-15102746D02*
X7872563Y-15083698D01*
X7872563Y-15083698D02*
X7882087Y-15074174D01*
X7882087Y-15074174D02*
X7901134Y-15064650D01*
X7901134Y-15064650D02*
X7929706Y-15064650D01*
X7929706Y-15064650D02*
X7948753Y-15074174D01*
X7948753Y-15074174D02*
X7958277Y-15083698D01*
X7958277Y-15083698D02*
X7967801Y-15102746D01*
X7967801Y-15102746D02*
X7967801Y-15159888D01*
X7967801Y-15159888D02*
X7958277Y-15178936D01*
X7958277Y-15178936D02*
X7948753Y-15188460D01*
X7948753Y-15188460D02*
X7929706Y-15197984D01*
X7929706Y-15197984D02*
X7901134Y-15197984D01*
X8082087Y-15197984D02*
X8063039Y-15188460D01*
X8063039Y-15188460D02*
X8053515Y-15169412D01*
X8053515Y-15169412D02*
X8053515Y-14997984D01*
X8234468Y-15188460D02*
X8215420Y-15197984D01*
X8215420Y-15197984D02*
X8177325Y-15197984D01*
X8177325Y-15197984D02*
X8158277Y-15188460D01*
X8158277Y-15188460D02*
X8148753Y-15169412D01*
X8148753Y-15169412D02*
X8148753Y-15093222D01*
X8148753Y-15093222D02*
X8158277Y-15074174D01*
X8158277Y-15074174D02*
X8177325Y-15064650D01*
X8177325Y-15064650D02*
X8215420Y-15064650D01*
X8215420Y-15064650D02*
X8234468Y-15074174D01*
X8234468Y-15074174D02*
X8243991Y-15093222D01*
X8243991Y-15093222D02*
X8243991Y-15112269D01*
X8243991Y-15112269D02*
X8148753Y-15131317D01*
X8320182Y-15188460D02*
X8339230Y-15197984D01*
X8339230Y-15197984D02*
X8377325Y-15197984D01*
X8377325Y-15197984D02*
X8396373Y-15188460D01*
X8396373Y-15188460D02*
X8405896Y-15169412D01*
X8405896Y-15169412D02*
X8405896Y-15159888D01*
X8405896Y-15159888D02*
X8396373Y-15140841D01*
X8396373Y-15140841D02*
X8377325Y-15131317D01*
X8377325Y-15131317D02*
X8348753Y-15131317D01*
X8348753Y-15131317D02*
X8329706Y-15121793D01*
X8329706Y-15121793D02*
X8320182Y-15102746D01*
X8320182Y-15102746D02*
X8320182Y-15093222D01*
X8320182Y-15093222D02*
X8329706Y-15074174D01*
X8329706Y-15074174D02*
X8348753Y-15064650D01*
X8348753Y-15064650D02*
X8377325Y-15064650D01*
X8377325Y-15064650D02*
X8396373Y-15074174D01*
X8472563Y-15274174D02*
X8482087Y-15264650D01*
X8482087Y-15264650D02*
X8501134Y-15236079D01*
X8501134Y-15236079D02*
X8510658Y-15217031D01*
X8510658Y-15217031D02*
X8520182Y-15188460D01*
X8520182Y-15188460D02*
X8529706Y-15140841D01*
X8529706Y-15140841D02*
X8529706Y-15102746D01*
X8529706Y-15102746D02*
X8520182Y-15055127D01*
X8520182Y-15055127D02*
X8510658Y-15026555D01*
X8510658Y-15026555D02*
X8501134Y-15007508D01*
X8501134Y-15007508D02*
X8482087Y-14978936D01*
X8482087Y-14978936D02*
X8472563Y-14969412D01*
M02*
