G04 #@! TF.GenerationSoftware,KiCad,Pcbnew,9.0.1*
G04 #@! TF.CreationDate,2025-06-27T23:51:54+02:00*
G04 #@! TF.ProjectId,NPI,4e50492e-6b69-4636-9164-5f7063625858,rev?*
G04 #@! TF.SameCoordinates,Original*
G04 #@! TF.FileFunction,Paste,Top*
G04 #@! TF.FilePolarity,Positive*
%FSLAX46Y46*%
G04 Gerber Fmt 4.6, Leading zero omitted, Abs format (unit mm)*
G04 Created by KiCad (PCBNEW 9.0.1) date 2025-06-27 23:51:54*
%MOMM*%
%LPD*%
G01*
G04 APERTURE LIST*
G04 Aperture macros list*
%AMRoundRect*
0 Rectangle with rounded corners*
0 $1 Rounding radius*
0 $2 $3 $4 $5 $6 $7 $8 $9 X,Y pos of 4 corners*
0 Add a 4 corners polygon primitive as box body*
4,1,4,$2,$3,$4,$5,$6,$7,$8,$9,$2,$3,0*
0 Add four circle primitives for the rounded corners*
1,1,$1+$1,$2,$3*
1,1,$1+$1,$4,$5*
1,1,$1+$1,$6,$7*
1,1,$1+$1,$8,$9*
0 Add four rect primitives between the rounded corners*
20,1,$1+$1,$2,$3,$4,$5,0*
20,1,$1+$1,$4,$5,$6,$7,0*
20,1,$1+$1,$6,$7,$8,$9,0*
20,1,$1+$1,$8,$9,$2,$3,0*%
G04 Aperture macros list end*
%ADD10RoundRect,0.237500X-0.237500X0.250000X-0.237500X-0.250000X0.237500X-0.250000X0.237500X0.250000X0*%
%ADD11R,5.080000X2.000000*%
%ADD12R,5.080000X1.500000*%
%ADD13RoundRect,0.375000X0.375000X-0.625000X0.375000X0.625000X-0.375000X0.625000X-0.375000X-0.625000X0*%
%ADD14RoundRect,0.500000X1.400000X-0.500000X1.400000X0.500000X-1.400000X0.500000X-1.400000X-0.500000X0*%
%ADD15RoundRect,0.150000X0.825000X0.150000X-0.825000X0.150000X-0.825000X-0.150000X0.825000X-0.150000X0*%
%ADD16RoundRect,0.150000X-0.825000X-0.150000X0.825000X-0.150000X0.825000X0.150000X-0.825000X0.150000X0*%
%ADD17RoundRect,0.100000X-0.100000X0.650000X-0.100000X-0.650000X0.100000X-0.650000X0.100000X0.650000X0*%
%ADD18RoundRect,0.250000X0.750000X-1.650000X0.750000X1.650000X-0.750000X1.650000X-0.750000X-1.650000X0*%
%ADD19RoundRect,0.250000X0.350000X0.450000X-0.350000X0.450000X-0.350000X-0.450000X0.350000X-0.450000X0*%
%ADD20RoundRect,0.237500X-0.250000X-0.237500X0.250000X-0.237500X0.250000X0.237500X-0.250000X0.237500X0*%
%ADD21RoundRect,0.250000X-0.450000X0.350000X-0.450000X-0.350000X0.450000X-0.350000X0.450000X0.350000X0*%
%ADD22RoundRect,0.200000X-0.750000X-0.200000X0.750000X-0.200000X0.750000X0.200000X-0.750000X0.200000X0*%
%ADD23RoundRect,0.250000X0.600000X-0.400000X0.600000X0.400000X-0.600000X0.400000X-0.600000X-0.400000X0*%
%ADD24RoundRect,0.250000X-0.475000X0.337500X-0.475000X-0.337500X0.475000X-0.337500X0.475000X0.337500X0*%
%ADD25RoundRect,0.250000X0.337500X0.475000X-0.337500X0.475000X-0.337500X-0.475000X0.337500X-0.475000X0*%
%ADD26RoundRect,0.250000X-0.337500X-0.475000X0.337500X-0.475000X0.337500X0.475000X-0.337500X0.475000X0*%
%ADD27RoundRect,0.250000X0.475000X-0.337500X0.475000X0.337500X-0.475000X0.337500X-0.475000X-0.337500X0*%
G04 APERTURE END LIST*
D10*
X74512500Y-109012500D03*
X74512500Y-107187500D03*
X69462500Y-108987500D03*
X69462500Y-107162500D03*
D11*
X83337500Y-113000000D03*
X83337500Y-105000000D03*
D12*
X83337500Y-109000000D03*
X83337500Y-125000000D03*
D11*
X83337500Y-121000000D03*
X83337500Y-129000000D03*
D13*
X50200000Y-134750000D03*
X52500000Y-134750000D03*
D14*
X52500000Y-128450000D03*
D13*
X54800000Y-134750000D03*
D15*
X51325000Y-119510000D03*
X51325000Y-118240000D03*
X51325000Y-116970000D03*
X51325000Y-115700000D03*
X51325000Y-114430000D03*
X51325000Y-113160000D03*
X51325000Y-111890000D03*
X46375000Y-111890000D03*
X46375000Y-113160000D03*
X46375000Y-114430000D03*
X46375000Y-115700000D03*
X46375000Y-116970000D03*
X46375000Y-118240000D03*
X46375000Y-119510000D03*
D16*
X55650000Y-111880000D03*
X55650000Y-113150000D03*
X55650000Y-114420000D03*
X55650000Y-115690000D03*
X55650000Y-116960000D03*
X55650000Y-118230000D03*
X55650000Y-119500000D03*
X60600000Y-119500000D03*
X60600000Y-118230000D03*
X60600000Y-116960000D03*
X60600000Y-115690000D03*
X60600000Y-114420000D03*
X60600000Y-113150000D03*
X60600000Y-111880000D03*
D17*
X51700000Y-104685000D03*
X51050000Y-104685000D03*
X50400000Y-104685000D03*
X50400000Y-107345000D03*
X51700000Y-107345000D03*
D18*
X67000000Y-137900000D03*
X63050000Y-137900000D03*
D19*
X65800000Y-128700000D03*
X63800000Y-128700000D03*
D20*
X71087500Y-109000000D03*
X72912500Y-109000000D03*
X63087500Y-116950000D03*
X64912500Y-116950000D03*
X63087500Y-114450000D03*
X64912500Y-114450000D03*
D21*
X48500000Y-105585000D03*
X48500000Y-107585000D03*
D22*
X64200000Y-130650000D03*
X64200000Y-132550000D03*
X67200000Y-131600000D03*
D23*
X61400000Y-132250000D03*
X61400000Y-128750000D03*
D24*
X54800000Y-137162500D03*
X54800000Y-139237500D03*
X50400000Y-137162500D03*
X50400000Y-139237500D03*
X52600000Y-137162500D03*
X52600000Y-139237500D03*
D25*
X60987500Y-109900000D03*
X58912500Y-109900000D03*
D26*
X45962500Y-121430000D03*
X48037500Y-121430000D03*
D27*
X53700000Y-107560000D03*
X53700000Y-105485000D03*
D24*
X46400000Y-105547500D03*
X46400000Y-107622500D03*
M02*
