M48
; DRILL file {KiCad 9.0.1} date 2025-06-27T23:52:13+0200
; FORMAT={-:-/ absolute / metric / decimal}
; #@! TF.CreationDate,2025-06-27T23:52:13+02:00
; #@! TF.GenerationSoftware,Kicad,Pcbnew,9.0.1
; #@! TF.FileFunction,Plated,1,6,PTH
FMAT,2
METRIC
; #@! TA.AperFunction,Plated,PTH,ViaDrill
T1C0.300
; #@! TA.AperFunction,Plated,PTH,ViaDrill
T2C0.500
%
G90
G05
T1
X38.0Y-99.0
X38.0Y-100.0
X38.0Y-101.0
X38.0Y-102.0
X38.0Y-103.0
X38.0Y-104.0
X38.0Y-105.0
X38.0Y-106.0
X38.0Y-107.0
X38.0Y-108.0
X38.0Y-109.0
X38.0Y-110.0
X38.0Y-111.0
X38.0Y-112.0
X38.0Y-113.0
X38.0Y-114.0
X38.0Y-115.0
X38.0Y-116.0
X38.0Y-117.0
X38.0Y-118.0
X38.0Y-119.0
X38.0Y-120.0
X38.0Y-121.0
X38.0Y-122.0
X38.0Y-123.0
X38.0Y-124.0
X38.0Y-125.0
X38.0Y-126.0
X38.0Y-127.0
X38.0Y-128.0
X38.0Y-129.0
X38.0Y-130.0
X38.0Y-131.0
X38.0Y-132.0
X38.0Y-133.0
X38.0Y-134.0
X38.0Y-135.0
X44.0Y-93.0
X44.0Y-141.0
X45.0Y-93.0
X45.0Y-141.0
X46.0Y-93.0
X46.0Y-141.0
X47.0Y-93.0
X47.0Y-141.0
X48.0Y-93.0
X48.0Y-141.0
X49.0Y-93.0
X49.0Y-141.0
X50.0Y-93.0
X50.0Y-141.0
X50.5Y-130.25
X50.5Y-131.25
X50.5Y-132.25
X51.0Y-93.0
X51.0Y-141.0
X51.5Y-130.25
X51.5Y-131.25
X51.5Y-132.25
X52.0Y-93.0
X52.0Y-141.0
X52.5Y-130.25
X52.5Y-131.25
X52.5Y-132.25
X52.8Y-113.16
X53.0Y-93.0
X53.0Y-141.0
X53.37Y-116.97
X53.5Y-130.25
X53.5Y-131.25
X53.5Y-132.25
X54.0Y-93.0
X54.0Y-141.0
X54.5Y-130.25
X54.5Y-131.25
X54.5Y-132.25
X55.0Y-93.0
X55.0Y-141.0
X56.0Y-93.0
X56.0Y-141.0
X57.0Y-93.0
X57.0Y-141.0
X58.0Y-93.0
X58.0Y-141.0
X58.9Y-115.7
X59.0Y-93.0
X59.0Y-113.15
X59.0Y-141.0
X60.0Y-93.0
X60.0Y-141.0
X61.0Y-93.0
X61.0Y-141.0
X62.0Y-93.0
X62.0Y-141.0
X63.0Y-93.0
X63.0Y-141.0
X63.5Y-106.0
X63.5Y-107.0
X63.5Y-108.0
X63.5Y-109.0
X63.5Y-110.0
X63.5Y-111.0
X63.5Y-112.0
X63.5Y-113.0
X63.5Y-119.0
X63.5Y-120.0
X63.5Y-121.0
X63.5Y-122.0
X63.5Y-123.0
X64.0Y-93.0
X64.0Y-141.0
X64.5Y-105.5
X64.5Y-123.0
X65.0Y-93.0
X65.0Y-141.0
X65.5Y-105.5
X65.5Y-123.0
X66.0Y-93.0
X66.0Y-141.0
X66.5Y-105.5
X66.5Y-123.0
X67.0Y-93.0
X67.0Y-141.0
X67.5Y-105.5
X67.5Y-123.0
X68.0Y-93.0
X68.0Y-141.0
X68.5Y-105.5
X68.5Y-123.0
X69.0Y-93.0
X69.0Y-141.0
X69.5Y-105.5
X69.5Y-123.0
X70.0Y-93.0
X70.0Y-141.0
X70.5Y-105.5
X70.5Y-123.0
X70.5Y-124.0
X70.5Y-125.0
X70.5Y-126.0
X70.5Y-127.0
X70.5Y-128.0
X71.0Y-93.0
X71.0Y-141.0
X71.5Y-105.5
X71.5Y-128.0
X72.0Y-93.0
X72.0Y-141.0
X72.5Y-105.5
X72.5Y-128.0
X73.0Y-93.0
X73.0Y-141.0
X73.5Y-105.5
X73.5Y-128.0
X74.0Y-93.0
X74.0Y-141.0
X74.5Y-105.5
X74.5Y-128.0
X75.0Y-93.0
X75.0Y-141.0
X75.5Y-105.5
X75.5Y-128.0
X76.0Y-93.0
X76.0Y-141.0
X76.5Y-105.5
X76.5Y-128.0
X77.0Y-93.0
X77.0Y-141.0
X77.5Y-105.5
X77.5Y-128.0
X78.0Y-93.0
X78.0Y-141.0
X78.5Y-105.5
X78.5Y-128.0
X79.0Y-93.0
X79.0Y-141.0
X79.5Y-105.5
X79.5Y-106.5
X79.5Y-111.0
X79.5Y-112.0
X79.5Y-113.0
X79.5Y-114.0
X79.5Y-115.0
X79.5Y-116.0
X79.5Y-117.0
X79.5Y-118.0
X79.5Y-119.0
X79.5Y-120.0
X79.5Y-121.0
X79.5Y-122.0
X79.5Y-123.0
X79.5Y-127.0
X79.5Y-128.0
X80.0Y-93.0
X80.0Y-141.0
X86.0Y-99.0
X86.0Y-100.0
X86.0Y-101.0
X86.0Y-102.0
X86.0Y-103.0
X86.0Y-115.0
X86.0Y-116.0
X86.0Y-117.0
X86.0Y-118.0
X86.0Y-119.0
X86.0Y-131.0
X86.0Y-132.0
X86.0Y-133.0
X86.0Y-134.0
X86.0Y-135.0
T2
X44.5Y-119.525
X51.85Y-108.9
X62.4Y-111.875
M30
